<?xml version="1.0" standalone="no"?>
<!DOCTYPE svg PUBLIC "-//W3C//DTD SVG 20010904//EN"
 "http://www.w3.org/TR/2001/REC-SVG-20010904/DTD/svg10.dtd">
<svg version="1.0" xmlns="http://www.w3.org/2000/svg"
 width="3680.000000pt" height="3328.000000pt" viewBox="0 0 3680.000000 3328.000000"
 preserveAspectRatio="xMidYMid meet">
<metadata>
Created by potrace 1.16, written by Peter Selinger 2001-2019
</metadata>
<g transform="translate(0.000000,3328.000000) scale(0.100000,-0.100000)"
fill="#000000" stroke="none">
<path d="M11360 29228 c-25 -5 -54 -13 -65 -18 -11 -4 -42 -11 -70 -14 -166
-20 -317 -63 -461 -132 -38 -19 -120 -52 -181 -73 -60 -22 -139 -53 -174 -69
-35 -16 -71 -32 -79 -36 -8 -3 -33 -17 -55 -31 -22 -14 -47 -28 -55 -31 -42
-17 -167 -79 -180 -90 -8 -7 -53 -32 -100 -56 -47 -24 -110 -60 -141 -81 -31
-20 -60 -37 -65 -37 -5 0 -34 -15 -64 -34 -54 -34 -66 -43 -125 -89 -35 -26
-74 -54 -119 -82 -17 -11 -41 -28 -51 -38 -33 -30 -119 -93 -145 -107 -14 -7
-34 -21 -45 -31 -11 -10 -51 -44 -90 -74 -38 -30 -83 -66 -100 -80 -16 -14
-73 -59 -125 -100 -52 -41 -130 -107 -173 -147 -81 -75 -356 -348 -384 -382
-8 -10 -43 -53 -78 -96 -35 -43 -71 -87 -81 -98 -11 -10 -44 -54 -74 -97 -30
-42 -64 -87 -75 -99 -41 -47 -65 -76 -65 -81 0 -3 -25 -37 -55 -77 -30 -40
-63 -84 -73 -98 -10 -14 -36 -54 -57 -90 -21 -36 -54 -89 -74 -119 -20 -29
-46 -70 -58 -90 -55 -90 -116 -195 -135 -231 -7 -14 -31 -52 -53 -84 -44 -65
-44 -66 -158 -288 -43 -84 -93 -180 -112 -213 -18 -33 -39 -76 -45 -95 -7 -19
-23 -58 -36 -87 -13 -28 -24 -56 -24 -61 0 -10 -43 -112 -61 -145 -5 -10 -20
-46 -33 -80 -46 -122 -87 -223 -111 -272 -14 -27 -30 -72 -36 -100 -7 -27 -16
-55 -20 -61 -23 -29 -80 -223 -129 -439 -10 -44 -23 -91 -29 -105 -6 -14 -17
-62 -26 -108 -8 -46 -19 -91 -24 -100 -5 -9 -14 -57 -20 -107 -6 -49 -18 -112
-26 -140 -42 -144 -60 -224 -89 -395 -8 -47 -20 -107 -26 -135 -12 -52 -16
-89 -25 -193 -3 -35 -9 -71 -15 -82 -5 -10 -10 -67 -10 -127 0 -104 -20 -245
-39 -282 -16 -29 -32 -669 -30 -1216 1 -519 11 -774 34 -810 12 -21 22 -66 35
-175 4 -36 13 -83 18 -105 6 -22 17 -80 26 -130 8 -49 23 -130 35 -180 11 -49
20 -102 21 -117 0 -15 9 -56 19 -90 11 -35 25 -90 31 -123 7 -33 19 -82 26
-109 8 -27 14 -60 14 -72 0 -12 22 -67 50 -122 27 -55 52 -113 56 -128 4 -16
15 -45 26 -64 10 -19 18 -43 18 -53 0 -9 9 -43 21 -75 11 -31 27 -79 34 -107
12 -48 71 -194 119 -300 13 -27 36 -79 51 -115 35 -85 43 -102 54 -120 5 -8
16 -31 25 -50 10 -19 29 -56 44 -81 15 -26 39 -70 55 -98 15 -28 31 -51 35
-51 4 0 13 -12 20 -27 13 -30 49 -84 82 -123 l21 -25 -24 -20 c-14 -11 -53
-42 -88 -70 -34 -27 -96 -80 -136 -117 -41 -38 -78 -68 -82 -68 -11 0 -81 -64
-81 -75 -1 -6 -33 -35 -72 -65 -93 -72 -167 -135 -253 -215 -38 -36 -108 -98
-155 -138 -46 -39 -121 -106 -165 -147 -45 -41 -94 -87 -111 -101 -24 -22 -96
-93 -160 -159 -54 -56 -204 -247 -267 -342 -154 -228 -246 -360 -280 -398 -7
-8 -47 -67 -89 -130 -67 -103 -111 -185 -176 -330 -43 -96 -103 -226 -117
-253 -8 -16 -15 -33 -15 -39 0 -6 -16 -32 -35 -59 -19 -27 -48 -84 -65 -128
-17 -44 -39 -90 -50 -103 -17 -22 -27 -47 -80 -196 -11 -29 -26 -62 -35 -74
-8 -13 -15 -28 -15 -35 0 -10 -93 -227 -133 -308 -46 -96 -69 -147 -91 -205
-13 -36 -38 -103 -55 -148 -17 -46 -31 -90 -31 -99 0 -8 -8 -35 -19 -61 -10
-26 -26 -78 -36 -117 -9 -38 -27 -92 -40 -120 -13 -27 -29 -68 -35 -90 -7 -22
-19 -45 -26 -52 -11 -12 -34 -96 -34 -128 0 -8 -4 -15 -8 -15 -5 0 -16 -46
-25 -102 -10 -56 -21 -104 -25 -107 -5 -4 -17 -43 -27 -88 -10 -46 -22 -83
-26 -83 -7 0 -12 -20 -36 -120 -3 -14 -10 -27 -14 -30 -9 -6 -39 -143 -39
-177 0 -12 -4 -23 -9 -25 -13 -5 -32 -226 -42 -493 -4 -132 -13 -296 -18 -365
-6 -69 -15 -199 -21 -289 -6 -91 -16 -173 -21 -183 -13 -25 -5 -256 16 -438
10 -88 14 -178 10 -228 -5 -84 11 -263 26 -272 19 -13 29 -145 29 -395 0 -195
5 -324 19 -460 11 -105 22 -269 26 -365 4 -96 11 -213 17 -260 5 -47 14 -130
18 -185 5 -55 12 -120 15 -145 3 -25 13 -99 21 -165 8 -66 21 -138 28 -160 8
-22 19 -76 26 -120 6 -44 17 -96 25 -115 7 -20 19 -81 25 -135 7 -55 15 -107
20 -115 4 -8 15 -58 25 -110 9 -52 23 -108 31 -123 8 -16 14 -35 14 -43 0 -8
4 -22 9 -32 27 -51 43 -99 52 -155 6 -34 15 -75 21 -92 5 -16 18 -66 28 -110
34 -153 51 -197 132 -363 92 -189 161 -317 223 -412 134 -207 135 -208 260
-345 48 -53 119 -141 146 -181 8 -13 33 -36 55 -52 21 -16 54 -46 72 -68 44
-52 111 -130 142 -165 14 -15 36 -42 50 -59 47 -58 181 -162 268 -206 17 -9
32 -20 32 -25 0 -5 6 -9 13 -9 6 -1 28 -14 47 -30 19 -17 40 -30 47 -30 7 0
17 -9 23 -21 6 -11 30 -29 53 -40 46 -21 82 -41 141 -77 58 -36 128 -72 139
-72 5 0 23 -11 39 -25 17 -14 49 -35 72 -47 22 -11 50 -30 61 -40 27 -27 126
-88 142 -88 7 0 13 -5 13 -11 0 -5 15 -16 34 -24 19 -8 51 -26 72 -40 20 -14
55 -29 78 -35 70 -17 109 -31 183 -66 39 -19 76 -34 83 -34 6 0 21 -7 34 -16
13 -8 64 -23 113 -34 48 -10 137 -30 198 -44 60 -14 148 -31 195 -36 47 -6 99
-15 115 -20 165 -47 402 -67 585 -48 36 4 144 10 240 13 134 6 189 12 235 27
43 14 109 22 245 30 102 5 212 17 245 25 33 8 89 22 125 30 36 9 92 28 125 43
33 15 85 38 115 50 30 13 59 27 64 32 6 4 16 8 24 8 18 0 140 73 172 103 14
13 39 32 55 43 40 25 36 22 150 113 137 108 175 153 175 205 0 21 -5 26 -25
26 -14 0 -28 -6 -31 -14 -3 -8 -14 -16 -25 -19 -10 -3 -23 -16 -28 -30 -5 -13
-20 -27 -33 -30 -13 -4 -50 -33 -83 -65 -33 -32 -68 -61 -77 -65 -10 -3 -18
-13 -18 -22 0 -8 -6 -15 -14 -15 -8 0 -16 -4 -18 -8 -1 -4 -25 -21 -53 -37
-27 -15 -52 -31 -55 -34 -10 -12 -171 -91 -185 -91 -8 0 -15 -3 -15 -8 0 -4
-30 -16 -67 -26 -38 -10 -75 -25 -83 -32 -9 -7 -40 -19 -70 -25 -30 -6 -64
-15 -75 -20 -28 -11 -201 -39 -246 -39 -21 0 -39 -4 -41 -9 -3 -8 -195 -30
-393 -45 -33 -3 -79 -8 -101 -11 -26 -4 -44 -3 -48 4 -5 7 -63 11 -169 11
-222 1 -346 18 -482 69 -60 22 -116 41 -123 41 -7 0 -39 13 -70 29 -31 17 -68
34 -82 40 -43 16 -172 102 -245 163 -17 15 -52 36 -76 46 -24 11 -65 35 -90
55 -26 19 -57 41 -70 48 -39 20 -172 142 -351 323 -92 92 -183 180 -202 195
-38 30 -126 134 -146 171 -7 14 -22 34 -32 45 -23 24 -126 155 -185 234 -23
31 -57 76 -76 101 -19 25 -40 56 -47 70 -12 23 -32 46 -124 144 -16 17 -58 67
-94 111 -101 123 -122 148 -203 235 -33 36 -72 84 -85 107 -14 22 -30 43 -37
46 -7 2 -22 24 -34 48 -12 24 -34 57 -49 72 -14 16 -27 34 -28 40 -1 7 -9 23
-18 37 -31 48 -58 105 -58 122 0 9 -4 19 -9 23 -5 3 -13 19 -16 37 -4 17 -27
73 -51 123 -46 98 -54 132 -85 350 -10 77 -25 163 -34 190 -8 28 -20 88 -26
135 -7 47 -18 94 -25 106 -7 11 -15 47 -17 80 -3 32 -9 97 -13 144 -4 47 -11
93 -16 103 -5 10 -18 103 -28 205 -10 103 -20 196 -23 207 -3 12 -8 52 -11 90
-4 39 -9 84 -12 100 -2 17 -9 100 -14 185 -6 85 -12 173 -15 195 -4 45 -16
253 -19 330 -1 28 1 201 5 385 4 257 3 337 -6 347 -32 32 -25 434 10 620 9 43
22 155 31 248 9 108 22 192 35 230 21 59 40 202 59 420 5 61 16 146 25 190 8
44 24 128 35 187 10 59 23 115 28 125 5 10 15 50 21 88 7 39 18 88 26 110 7
22 19 67 25 100 7 33 17 66 22 72 15 18 57 184 75 293 8 52 21 111 28 130 23
62 56 183 71 260 8 41 21 91 29 110 7 19 19 60 26 90 6 30 16 60 21 67 5 6 16
39 24 73 8 33 20 71 28 83 8 12 17 38 21 57 4 19 22 67 41 106 19 39 34 77 34
83 0 30 56 175 116 300 36 75 78 161 92 191 45 99 85 175 104 199 10 13 18 29
18 36 0 7 7 15 14 18 8 3 20 25 26 49 13 46 36 98 137 308 36 74 76 158 88
185 12 28 36 80 53 118 18 37 32 74 32 82 0 9 19 48 42 88 23 40 56 104 75
142 18 39 40 84 49 100 9 17 42 80 74 140 31 61 69 128 84 149 14 21 26 44 26
51 0 11 115 181 180 265 15 19 35 49 44 65 9 17 30 48 47 70 16 22 37 51 47
65 9 13 26 33 37 45 11 11 66 75 121 140 90 107 171 191 379 394 101 99 134
123 176 131 39 7 42 6 61 -26 11 -19 25 -34 32 -34 7 0 33 -21 58 -47 153
-160 196 -198 258 -230 30 -16 66 -36 80 -45 14 -9 52 -22 85 -28 32 -7 68
-18 80 -25 11 -7 36 -16 55 -19 19 -4 76 -27 125 -50 50 -24 129 -56 177 -71
85 -26 94 -27 318 -27 126 1 235 4 242 8 6 4 26 9 42 10 110 8 287 35 321 49
23 10 88 21 155 26 63 5 129 15 145 23 17 8 59 22 95 30 63 14 157 43 230 70
49 18 124 45 195 68 33 11 123 51 200 89 77 38 146 69 152 69 24 0 159 69 170
88 6 11 40 37 75 58 35 21 65 40 68 44 3 3 17 13 33 23 15 10 27 26 27 36 0
18 28 82 40 91 3 3 14 25 24 50 10 25 21 47 24 50 11 8 42 79 42 96 0 8 7 25
14 37 8 12 28 61 44 108 23 66 30 106 31 177 2 99 -11 167 -34 176 -8 3 -15
11 -15 17 0 15 -72 89 -86 89 -7 0 -14 6 -17 13 -3 7 -23 19 -46 27 -23 7 -41
17 -41 22 0 5 -12 14 -27 21 -15 6 -41 25 -58 40 -16 15 -41 30 -54 34 -13 3
-89 40 -169 81 l-146 75 -200 8 c-370 15 -629 13 -791 -5 -82 -10 -156 -21
-165 -26 -8 -4 -69 -15 -135 -25 -66 -9 -140 -22 -165 -30 -25 -8 -76 -20
-115 -26 -38 -6 -78 -16 -88 -21 -10 -5 -55 -18 -100 -28 -103 -24 -198 -55
-262 -86 -28 -13 -56 -24 -62 -24 -7 0 -27 -6 -45 -14 -18 -8 -71 -29 -118
-46 -47 -17 -103 -39 -125 -49 -22 -10 -56 -24 -75 -31 -19 -8 -98 -44 -175
-82 -77 -37 -141 -64 -143 -58 -2 6 -9 16 -15 23 -21 21 -56 96 -63 132 -3 19
-10 35 -15 35 -5 0 -9 9 -9 19 0 11 -4 22 -9 25 -4 3 -6 17 -4 30 3 13 -2 37
-10 53 -19 35 -47 125 -47 152 0 11 -4 22 -9 26 -6 3 -9 28 -9 55 1 27 -4 55
-10 63 -7 8 -10 21 -6 30 3 8 1 25 -6 36 -6 12 -13 38 -15 58 -10 74 -23 129
-39 167 -10 21 -19 68 -22 103 -2 36 -7 70 -11 76 -4 7 -9 28 -10 49 -1 20
-12 52 -24 72 -11 19 -18 40 -14 46 4 6 2 17 -5 25 -8 9 -8 15 0 20 7 4 8 11
2 18 -5 7 -13 28 -17 47 -8 40 -24 96 -36 125 -7 16 -232 1537 -254 1710 -10
84 -14 607 -5 655 5 25 11 160 15 300 3 140 10 275 16 299 5 24 9 62 9 85 -1
57 9 164 19 206 5 19 9 42 10 50 1 14 36 243 61 396 6 34 17 84 25 110 7 27
19 69 25 94 6 25 20 74 31 110 23 74 52 220 79 391 10 64 22 125 28 135 5 11
15 51 22 89 7 39 19 86 26 105 7 19 18 62 25 95 6 32 17 68 24 80 8 11 20 45
29 75 22 79 55 178 76 230 11 25 22 61 26 80 3 19 15 52 25 72 11 21 19 44 19
53 0 9 9 33 20 53 43 81 130 267 130 280 0 7 9 30 20 50 11 20 34 71 51 112
18 41 40 86 50 99 11 13 19 30 19 37 0 8 16 49 36 91 20 43 38 95 39 116 1 21
17 61 36 95 19 31 50 89 69 127 18 39 41 79 50 90 17 19 26 35 67 115 10 19
23 40 28 45 18 17 85 121 85 131 0 10 85 132 120 172 11 13 20 29 20 36 0 8
12 29 28 49 15 20 38 55 52 78 25 42 63 94 100 137 11 13 20 29 20 36 0 12 42
72 74 106 7 8 21 31 30 50 30 61 55 104 96 160 67 91 129 183 151 225 12 22
36 58 53 80 18 22 44 58 59 80 80 121 120 172 197 259 62 70 265 266 274 266
5 0 20 12 35 28 15 15 69 65 120 112 52 47 112 103 135 125 70 67 210 165 236
165 6 0 20 11 32 25 12 14 26 25 32 25 5 0 18 7 27 16 20 18 151 94 265 154
40 21 96 53 125 72 84 54 119 74 189 108 36 17 88 42 115 56 28 13 64 27 80
30 17 4 39 12 50 19 20 12 122 45 210 67 36 9 191 5 270 -6 35 -5 111 -25 140
-37 11 -4 57 -16 103 -25 45 -10 82 -22 82 -26 0 -4 27 -15 60 -24 33 -9 60
-20 60 -24 0 -4 11 -11 25 -14 14 -4 33 -14 43 -24 27 -26 70 -52 87 -52 8 0
15 -4 15 -9 0 -5 12 -13 28 -19 15 -5 41 -21 57 -36 17 -14 33 -26 37 -26 11
0 58 -54 58 -66 0 -7 7 -14 15 -18 8 -3 20 -17 25 -31 5 -14 14 -25 19 -25 14
0 25 -40 22 -85 -1 -22 6 -58 15 -80 9 -22 22 -85 28 -140 13 -113 5 -373 -11
-383 -6 -4 -18 -34 -28 -67 -9 -33 -21 -63 -26 -66 -5 -3 -12 -23 -16 -45 -3
-21 -21 -70 -39 -108 -19 -37 -34 -72 -34 -78 0 -11 -49 -58 -61 -58 -5 0 -9
-6 -9 -14 0 -8 -37 -59 -82 -113 -80 -95 -159 -158 -225 -178 -13 -3 -23 -11
-23 -16 0 -13 -68 -11 -87 4 -8 6 -32 29 -53 49 -35 35 -39 43 -45 112 -8 81
-1 132 22 158 18 20 9 58 -14 58 -14 0 -63 -47 -63 -61 0 -3 -9 -16 -19 -28
-40 -46 -51 -207 -18 -278 24 -53 102 -119 172 -146 l67 -26 95 19 c110 23 95
16 201 94 104 76 151 120 181 169 12 20 30 43 39 50 9 6 26 28 36 47 11 19 28
41 38 48 10 7 18 19 18 27 0 7 6 20 13 27 7 7 21 33 32 58 11 25 22 47 25 50
9 8 40 127 40 155 0 14 4 25 9 25 14 0 23 51 11 65 -8 10 -8 19 -1 34 6 11 11
48 12 83 0 35 6 85 13 113 7 34 9 86 3 162 -8 120 -20 155 -94 271 -18 29 -33
57 -33 62 0 6 -4 10 -10 10 -5 0 -17 15 -26 33 -9 17 -21 35 -26 38 -6 4 -15
15 -21 26 -27 46 -73 103 -87 108 -8 3 -28 17 -45 31 -16 15 -42 31 -57 36
-16 6 -28 14 -28 19 0 5 -6 9 -12 9 -7 0 -31 16 -53 35 -22 19 -45 35 -52 35
-7 0 -16 6 -20 13 -4 7 -26 21 -48 32 -22 11 -45 25 -52 32 -7 6 -39 17 -71
23 -31 7 -61 16 -67 20 -5 4 -43 15 -82 25 -40 9 -73 21 -73 25 0 25 -386 40
-490 18z m-890 -10773 c14 -1 43 -7 65 -13 128 -33 217 -52 248 -52 20 0 79
-16 133 -35 53 -19 100 -33 104 -30 4 3 13 -2 20 -10 7 -9 29 -23 49 -32 19
-10 43 -25 53 -35 10 -10 25 -18 34 -18 19 0 74 -50 74 -67 0 -7 6 -16 13 -20
19 -12 37 -60 37 -98 0 -39 -19 -135 -30 -150 -3 -5 -15 -36 -24 -67 -10 -32
-22 -58 -26 -58 -5 0 -12 -14 -15 -32 -4 -17 -23 -61 -41 -97 -19 -36 -34 -72
-34 -78 0 -7 -4 -13 -9 -13 -5 0 -14 -14 -20 -30 -7 -22 -23 -37 -53 -51 -24
-11 -65 -36 -93 -56 -27 -20 -79 -45 -115 -56 -36 -10 -103 -29 -148 -42 -46
-13 -89 -28 -95 -34 -22 -17 -121 -51 -197 -67 -41 -8 -85 -22 -97 -30 -12 -8
-69 -19 -125 -25 -57 -6 -115 -18 -130 -25 -71 -37 -437 -72 -586 -56 -132 14
-331 47 -362 60 -14 6 -59 18 -100 27 -110 25 -155 40 -255 90 -49 24 -126 59
-171 78 -44 19 -100 49 -125 67 -24 17 -56 39 -71 48 -16 9 -28 20 -28 24 0 4
-17 16 -39 27 -36 19 -101 99 -101 126 0 23 173 175 200 175 5 0 24 13 42 28
18 15 78 54 133 86 55 32 112 67 126 76 37 26 114 64 199 99 41 17 88 38 103
46 16 8 33 15 38 15 6 0 34 11 62 25 29 13 77 31 108 39 31 8 65 19 75 25 29
16 161 59 234 75 62 14 88 22 225 66 33 11 92 24 130 30 39 7 86 16 105 21
123 34 282 42 480 24z"/>
<path d="M17895 27976 c-31 -17 -40 -29 -41 -50 -1 -15 -6 -31 -12 -35 -6 -4
-14 -25 -18 -46 -3 -22 -10 -44 -15 -49 -12 -13 -12 -193 1 -201 6 -3 10 -15
10 -25 0 -36 32 -115 108 -270 89 -181 125 -241 182 -301 61 -64 111 -135 148
-209 30 -59 30 -62 7 -35 -14 17 -25 36 -25 42 0 7 -9 18 -20 25 -11 7 -20 18
-20 25 0 6 -11 20 -25 31 -14 11 -25 22 -25 25 0 3 -19 33 -42 67 -24 34 -61
90 -84 125 -22 35 -81 104 -130 153 -49 49 -97 101 -107 115 -10 15 -24 27
-32 27 -8 0 -15 4 -15 9 0 17 -98 81 -147 98 -26 9 -54 20 -61 26 -16 13 -226
21 -277 10 -38 -8 -42 -12 -84 -98 -53 -108 -65 -193 -35 -241 21 -34 75 -90
115 -119 68 -49 120 -85 124 -85 3 0 28 -23 57 -51 29 -28 67 -58 83 -65 51
-25 118 -64 135 -79 9 -8 21 -15 26 -15 5 0 15 -9 21 -19 7 -10 27 -27 45 -36
18 -10 50 -27 70 -37 20 -11 42 -26 49 -34 6 -8 15 -14 20 -14 5 0 37 -19 70
-42 34 -24 100 -64 147 -89 67 -36 88 -53 94 -74 6 -24 3 -28 -30 -43 -20 -10
-50 -26 -67 -37 -74 -47 -235 -155 -405 -270 -102 -69 -202 -137 -223 -150
-20 -14 -91 -77 -158 -140 -66 -63 -126 -115 -134 -115 -8 0 -20 -8 -27 -18
-7 -9 -24 -25 -38 -34 -73 -47 -320 -305 -320 -334 0 -4 -19 -34 -43 -68 -23
-33 -50 -78 -60 -98 -10 -20 -22 -40 -27 -43 -14 -9 -12 -49 2 -63 23 -23 55
-13 81 26 27 40 130 145 279 285 120 113 132 123 179 152 21 14 39 30 39 35 0
6 4 10 10 10 5 0 31 15 57 34 27 18 61 36 76 40 16 4 38 17 50 30 12 12 38 31
57 41 19 10 42 22 50 26 8 5 26 14 40 21 79 36 373 183 415 208 28 16 66 37
85 47 19 9 42 22 50 28 8 6 35 18 60 25 25 8 57 22 71 32 15 9 39 22 54 28 26
10 27 10 20 -22 -4 -18 -13 -46 -20 -63 -28 -63 -37 -173 -30 -349 4 -94 13
-198 20 -231 7 -33 16 -90 20 -127 4 -37 16 -91 27 -120 11 -29 21 -62 22 -74
2 -11 12 -34 23 -50 11 -16 18 -35 16 -41 -7 -19 100 -121 133 -128 16 -4 43
-11 59 -16 17 -5 60 -11 96 -14 l66 -6 32 36 c43 49 87 147 101 222 6 33 12
142 13 242 l2 180 50 -49 c28 -28 55 -50 60 -50 5 0 18 -9 30 -20 29 -27 131
-66 226 -86 68 -15 84 -16 121 -4 146 46 238 157 238 286 0 35 -4 65 -9 68 -4
3 -14 26 -21 50 -7 25 -23 60 -36 78 -13 17 -24 37 -24 42 0 30 -162 146 -204
146 -6 0 -28 8 -49 19 -20 10 -67 26 -104 36 -38 10 -82 24 -100 31 -17 8 -37
14 -45 14 -7 0 -53 21 -103 45 -49 25 -104 45 -121 45 -32 0 -123 27 -139 41
-5 5 -19 9 -30 9 -12 0 -25 3 -28 7 -9 9 22 43 39 43 8 0 42 28 77 63 62 61
77 90 77 152 0 22 -25 49 -67 73 -26 14 -129 16 -137 3 -4 -5 -26 -9 -51 -9
-41 1 -45 3 -46 27 -1 14 -3 37 -4 51 -7 67 -26 482 -25 537 0 33 -4 64 -10
68 -5 3 -10 30 -10 60 0 29 -7 89 -15 132 -8 43 -15 95 -15 115 0 20 -4 39 -9
42 -5 3 -12 17 -15 31 -24 93 -126 232 -199 269 -17 9 -57 31 -87 47 -52 29
-147 59 -180 58 -8 -1 -33 -11 -55 -23z m110 -75 c3 -6 26 -13 51 -17 24 -3
61 -17 80 -30 19 -13 38 -24 43 -24 12 0 101 -90 101 -103 0 -5 11 -24 24 -41
13 -17 26 -42 31 -56 4 -14 13 -34 20 -45 7 -11 15 -47 18 -80 15 -178 29
-282 39 -303 9 -17 9 -25 0 -34 -15 -15 -16 -70 -1 -85 6 -6 12 -64 14 -129 2
-66 7 -165 11 -221 3 -57 4 -103 1 -103 -10 0 -71 104 -85 145 -8 22 -19 47
-26 55 -7 8 -18 28 -25 44 -15 36 -39 68 -118 157 -35 39 -63 77 -63 84 0 17
-33 75 -42 75 -5 0 -8 9 -8 20 0 10 -6 23 -12 27 -7 4 -19 17 -26 28 -12 19
-18 33 -41 85 -6 14 -15 32 -20 40 -64 100 -118 312 -93 363 6 12 15 38 21 57
18 54 53 100 78 100 12 0 24 -4 28 -9z m-512 -449 c7 -5 33 -15 59 -22 26 -7
53 -19 59 -26 6 -8 17 -14 25 -14 7 0 17 -6 21 -14 4 -8 36 -33 71 -57 41 -27
70 -54 80 -77 9 -19 40 -57 68 -83 28 -27 57 -61 65 -76 17 -34 45 -77 82
-124 15 -20 27 -39 27 -43 0 -3 32 -46 70 -93 39 -48 70 -92 70 -99 0 -7 10
-21 23 -31 20 -15 36 -41 66 -100 3 -7 21 -33 39 -58 l33 -45 -24 0 c-14 0
-62 19 -107 43 -45 23 -94 48 -108 56 -15 7 -51 30 -81 50 -29 20 -61 41 -69
46 -51 32 -100 62 -117 73 -11 6 -31 17 -44 22 -13 6 -46 30 -75 54 -28 24
-60 46 -71 50 -11 3 -36 20 -55 38 -19 17 -60 47 -90 67 -30 20 -75 51 -99 69
-24 17 -47 32 -51 32 -10 0 -62 44 -121 102 -45 44 -48 49 -43 89 6 50 49 136
84 166 23 21 33 22 113 18 49 -2 94 -8 100 -13z m1027 -1354 c12 -40 33 -96
46 -125 13 -28 24 -57 24 -64 0 -7 11 -27 25 -45 14 -18 25 -37 25 -43 0 -5
30 -47 68 -93 37 -46 81 -101 97 -123 l30 -40 0 -220 c0 -184 -3 -226 -17
-255 -9 -19 -24 -57 -34 -85 -22 -64 -37 -75 -98 -75 -67 1 -121 21 -149 55
-44 55 -87 133 -87 158 0 7 -6 21 -13 32 -8 11 -22 43 -32 70 -9 28 -21 59
-26 70 -17 41 -39 240 -39 358 0 90 6 141 21 197 11 41 22 84 24 95 21 96 29
122 41 136 8 8 14 21 14 27 0 16 39 54 49 48 5 -3 18 -38 31 -78z m128 53 c9
-6 42 -18 72 -27 30 -9 64 -23 75 -29 11 -7 38 -16 60 -20 22 -4 58 -15 80
-25 78 -35 150 -60 177 -60 15 0 30 -4 33 -10 3 -5 20 -10 36 -10 18 0 28 -4
24 -10 -3 -5 -3 -10 2 -10 4 0 55 -13 113 -28 175 -47 221 -91 225 -215 1 -32
7 -63 13 -69 14 -14 16 -64 3 -72 -4 -3 -11 -19 -15 -36 -6 -30 -54 -100 -69
-100 -4 0 -20 -9 -36 -21 -51 -37 -175 -23 -289 33 -40 19 -68 41 -77 58 -8
15 -38 47 -67 70 -62 49 -188 169 -188 179 0 3 -8 11 -17 17 -10 6 -44 62 -76
125 -32 63 -63 121 -67 129 -12 19 -60 129 -60 135 0 8 29 5 48 -4z"/>
<path d="M14975 26681 c-58 -10 -116 -50 -189 -131 -17 -19 -42 -46 -56 -60
-14 -14 -32 -41 -40 -60 -8 -19 -17 -37 -21 -40 -3 -3 -14 -20 -23 -37 -9 -18
-20 -33 -25 -33 -5 0 -16 -18 -25 -40 -9 -22 -20 -40 -24 -40 -5 0 -16 -16
-25 -35 -9 -19 -21 -35 -26 -35 -5 0 -14 -21 -20 -47 -12 -45 -50 -140 -70
-173 -20 -32 -89 -176 -96 -200 -4 -14 -18 -48 -31 -77 -13 -28 -24 -58 -24
-67 0 -8 -5 -16 -10 -18 -6 -2 -17 -29 -25 -60 -8 -30 -22 -68 -30 -84 -8 -15
-19 -61 -26 -101 -6 -40 -16 -73 -20 -73 -5 0 -9 -10 -9 -22 0 -40 -33 -198
-42 -198 -4 0 -8 -7 -8 -17 0 -24 -33 -127 -43 -134 -4 -3 -15 -43 -22 -88 -8
-45 -20 -92 -27 -104 -7 -12 -11 -30 -9 -39 1 -10 -3 -18 -9 -18 -8 0 -9 -14
-4 -45 4 -30 2 -50 -6 -60 -6 -8 -9 -19 -5 -25 3 -6 0 -24 -9 -40 -9 -19 -10
-30 -4 -30 6 0 4 -8 -4 -17 -8 -10 -16 -25 -16 -33 -2 -30 -26 -110 -33 -110
-3 0 -10 -26 -13 -57 -13 -116 -29 -208 -37 -213 -9 -6 -25 -116 -35 -230 -3
-35 -9 -67 -13 -70 -4 -3 -13 -48 -20 -100 -7 -52 -17 -100 -22 -107 -6 -7 -8
-16 -5 -22 3 -5 1 -11 -5 -13 -5 -2 -12 -15 -14 -28 -14 -90 -18 -106 -27
-117 -5 -7 -7 -17 -3 -23 3 -5 2 -10 -3 -10 -11 0 -27 -63 -37 -142 -3 -26
-10 -50 -14 -53 -11 -6 -21 -94 -30 -263 -6 -93 -12 -137 -23 -150 -8 -9 -20
-30 -27 -47 -6 -16 -29 -49 -49 -71 -20 -23 -50 -59 -67 -80 -16 -21 -37 -45
-45 -54 -8 -9 -24 -32 -34 -51 -11 -19 -25 -38 -33 -42 -7 -4 -13 -15 -13 -22
0 -8 -8 -23 -17 -33 -10 -10 -27 -36 -38 -58 -11 -21 -22 -41 -25 -44 -3 -3
-14 -18 -24 -35 -11 -16 -23 -34 -28 -40 -23 -29 -77 -99 -107 -139 -18 -26
-37 -46 -42 -46 -5 0 -9 -6 -9 -14 0 -8 -11 -23 -25 -34 -14 -11 -25 -23 -25
-27 0 -5 -16 -27 -35 -51 -19 -23 -35 -47 -35 -53 0 -6 -9 -15 -20 -21 -11 -6
-20 -17 -20 -25 0 -8 -8 -20 -18 -27 -9 -7 -25 -24 -33 -38 -9 -14 -34 -43
-55 -66 -177 -185 -234 -249 -234 -263 0 -5 -10 -18 -22 -28 -13 -10 -32 -34
-42 -53 -11 -19 -34 -50 -51 -68 -18 -19 -42 -53 -54 -77 -12 -24 -28 -46 -36
-49 -8 -3 -15 -11 -15 -19 0 -7 -10 -23 -22 -34 -13 -12 -48 -56 -78 -98 -30
-43 -74 -98 -98 -123 -23 -25 -54 -59 -69 -76 -14 -17 -69 -77 -122 -132 -53
-56 -125 -135 -161 -176 -50 -58 -76 -79 -112 -92 -27 -10 -48 -21 -48 -25 0
-4 -42 -15 -92 -26 -51 -10 -99 -23 -106 -28 -17 -14 -212 -13 -221 1 -3 5
-37 13 -76 16 -81 9 -155 25 -155 35 0 12 -69 41 -95 41 -21 0 -25 -5 -24 -27
0 -24 9 -32 57 -56 56 -27 135 -39 324 -51 36 -3 76 -10 88 -16 12 -7 32 -10
44 -7 100 22 217 46 248 52 20 3 58 18 85 32 44 25 63 37 118 78 45 35 125 85
134 85 5 0 11 3 13 8 2 4 39 31 83 61 44 30 102 75 130 100 70 65 395 392 395
399 0 7 59 78 119 142 64 68 100 110 126 144 11 15 30 39 43 53 12 14 22 29
22 32 0 3 14 22 30 41 16 19 30 38 30 42 0 5 18 27 40 49 22 23 40 45 40 49 0
5 11 17 25 28 14 11 25 25 25 31 0 6 11 17 25 23 14 6 25 16 25 22 0 6 28 40
61 76 33 36 72 77 85 91 13 14 24 31 24 37 0 6 8 16 19 21 10 6 21 21 25 34 3
13 17 36 31 51 14 15 25 33 25 41 0 8 9 19 20 25 11 6 20 17 20 25 0 8 8 20
18 27 19 15 40 44 48 71 4 9 10 17 15 17 4 0 16 16 25 35 9 19 20 35 24 35 4
0 10 10 13 22 14 53 19 -8 21 -283 1 -219 5 -294 14 -297 7 -2 12 -21 12 -42
0 -47 26 -164 45 -207 8 -17 15 -41 15 -52 0 -29 23 -101 32 -101 5 0 8 -12 8
-27 0 -38 27 -135 39 -142 6 -4 17 -23 26 -44 8 -20 19 -37 23 -37 4 0 14 -16
20 -34 14 -38 93 -122 123 -131 11 -4 19 -10 19 -15 0 -5 10 -12 23 -16 12 -3
41 -26 64 -50 24 -24 46 -44 51 -44 4 0 39 -33 78 -72 65 -67 154 -138 172
-138 5 0 17 -8 28 -19 26 -24 111 -71 128 -71 7 0 25 -9 40 -21 14 -11 26 -18
26 -15 0 3 25 -4 57 -15 112 -38 345 -25 397 23 11 10 24 18 28 18 9 0 60 33
93 62 11 9 52 33 90 53 39 19 75 42 80 49 6 7 19 16 30 20 11 3 36 21 55 39
19 17 48 39 64 47 16 8 38 27 49 43 12 15 25 27 30 27 12 0 277 267 277 279 0
5 9 12 19 16 11 3 23 15 26 26 4 11 17 27 31 35 13 9 24 22 24 28 0 22 60 85
75 79 8 -3 15 -11 15 -18 0 -14 30 -76 41 -85 8 -7 26 -66 34 -112 3 -21 9
-38 14 -38 4 0 13 -22 20 -50 12 -46 48 -106 93 -154 10 -11 18 -23 18 -28 0
-11 55 -38 79 -38 10 0 21 -4 23 -9 4 -14 119 -31 219 -32 77 -1 167 14 179
30 3 3 23 15 44 26 48 24 164 98 188 119 9 8 30 22 45 30 15 8 37 27 48 41 11
15 30 37 43 50 12 12 22 27 22 34 0 6 9 16 20 23 11 7 20 18 20 25 0 6 11 20
25 31 14 11 25 24 25 30 0 5 7 15 15 22 8 7 15 21 15 31 0 11 3 19 8 19 11 0
32 51 32 77 0 16 -6 23 -19 23 -30 0 -51 -11 -51 -26 0 -22 -51 -107 -77 -127
-12 -10 -23 -23 -23 -28 0 -9 -17 -31 -57 -73 -13 -13 -23 -26 -23 -29 0 -13
-122 -117 -137 -117 -6 0 -17 -8 -27 -19 -9 -10 -34 -26 -56 -36 -22 -10 -40
-21 -40 -25 0 -4 -19 -15 -42 -26 -24 -10 -45 -21 -48 -25 -3 -3 -19 -9 -36
-12 -25 -5 -38 -1 -60 18 -16 14 -34 25 -41 25 -7 0 -17 9 -23 20 -6 11 -16
20 -23 20 -18 0 -111 100 -131 140 -10 19 -24 55 -33 80 -8 25 -21 59 -28 75
-18 40 -32 113 -40 205 -9 93 9 292 30 333 8 16 15 53 15 81 1 28 5 71 11 96
5 25 12 64 16 88 3 23 9 42 13 42 12 0 34 150 24 159 -5 5 -23 12 -40 15 -25
6 -36 2 -58 -21 -16 -15 -37 -46 -48 -68 -11 -22 -28 -51 -38 -65 -9 -14 -20
-42 -24 -62 -4 -21 -11 -38 -16 -38 -5 0 -17 -26 -26 -57 -9 -32 -20 -60 -24
-63 -10 -8 -40 -88 -40 -110 0 -11 -4 -20 -9 -20 -5 0 -12 -23 -15 -52 -5 -35
-15 -59 -30 -73 -13 -12 -29 -32 -36 -45 -7 -13 -17 -29 -22 -34 -5 -6 -27
-42 -50 -80 -22 -38 -55 -83 -72 -101 -17 -17 -40 -50 -51 -73 -11 -23 -23
-42 -26 -42 -4 0 -12 -13 -19 -30 -7 -16 -19 -30 -26 -30 -8 0 -14 -6 -14 -12
0 -16 -118 -132 -142 -141 -10 -4 -18 -13 -18 -22 0 -8 -4 -15 -10 -15 -15 0
-80 -69 -80 -85 0 -8 -8 -19 -17 -24 -10 -5 -40 -30 -67 -55 -26 -25 -52 -46
-57 -46 -4 0 -28 -13 -52 -30 -25 -16 -49 -30 -55 -30 -5 0 -15 -6 -21 -13 -6
-8 -29 -20 -51 -27 -22 -7 -40 -16 -40 -20 0 -4 -21 -15 -47 -25 -27 -10 -54
-24 -61 -31 -7 -8 -40 -19 -72 -26 -33 -6 -60 -16 -60 -20 0 -11 -68 -10 -72
1 -1 5 -43 17 -93 25 -56 10 -92 21 -98 31 -4 8 -14 15 -22 15 -7 0 -22 10
-32 23 -16 20 -107 67 -131 67 -15 0 -145 89 -165 113 -55 65 -150 156 -159
151 -5 -3 -12 3 -15 15 -3 11 -18 26 -34 33 -16 7 -29 18 -29 25 0 7 -13 19
-30 28 -16 9 -30 19 -30 23 0 5 -9 18 -21 30 -11 13 -27 38 -35 57 -8 20 -22
44 -32 54 -34 36 -52 61 -52 74 0 7 -4 17 -10 23 -5 5 -11 49 -13 96 -1 47 -8
92 -14 99 -13 17 -30 143 -39 289 -3 58 -11 108 -16 111 -13 8 -27 387 -19
508 4 62 10 96 19 99 6 2 12 10 12 18 0 18 30 66 47 77 7 4 13 14 13 22 0 8 8
20 18 27 17 13 36 39 49 68 4 8 15 21 25 28 10 7 18 19 18 27 0 8 6 18 13 22
7 4 21 25 32 46 11 20 23 37 27 37 4 0 15 15 24 33 9 17 20 34 23 37 4 3 15
24 25 48 11 23 23 42 27 42 5 0 13 18 19 40 6 21 17 46 25 54 8 8 15 20 15 26
0 18 31 74 46 83 8 4 14 14 14 22 0 8 8 20 19 27 10 7 21 22 25 33 3 11 19 36
36 55 16 19 30 40 30 47 0 7 6 16 13 20 7 4 21 27 31 51 11 23 22 42 26 42 3
0 15 19 25 43 10 23 25 48 32 55 7 7 13 19 13 26 0 7 8 21 18 32 10 11 27 41
37 67 10 26 21 47 25 47 4 0 13 18 20 40 8 23 18 44 24 48 14 9 46 70 46 88 0
8 4 14 8 14 5 0 15 19 22 41 8 23 19 47 25 53 5 6 19 29 30 51 11 22 22 42 26
45 9 8 89 176 89 189 0 6 5 11 10 11 6 0 10 6 10 14 0 17 32 80 43 84 4 2 7
10 7 18 0 17 29 76 41 84 15 10 89 244 92 293 1 9 5 17 9 17 4 0 8 6 8 14 0
19 32 120 40 126 4 3 15 41 25 85 10 44 22 82 26 85 3 3 9 23 11 45 11 91 31
200 38 205 4 3 13 50 20 105 9 72 18 105 31 118 11 10 19 32 19 49 0 36 20
110 33 119 8 6 36 287 37 376 0 28 5 55 10 58 12 7 14 325 2 325 -4 0 -13 19
-19 43 -12 43 -65 107 -89 107 -8 0 -14 4 -14 8 0 24 -135 38 -225 23z m115
-61 c11 -11 20 -30 20 -41 0 -12 8 -28 18 -35 14 -10 17 -28 17 -111 -1 -119
-15 -293 -25 -293 -4 0 -10 -51 -13 -112 -5 -112 -22 -208 -37 -208 -4 0 -10
-19 -13 -42 -11 -75 -27 -142 -36 -147 -5 -4 -17 -35 -26 -71 -10 -36 -22 -70
-26 -76 -5 -6 -14 -46 -20 -90 -5 -43 -11 -86 -12 -94 -2 -8 -5 -19 -8 -25 -3
-5 -17 -53 -30 -105 -13 -52 -29 -101 -36 -108 -7 -7 -17 -31 -23 -52 -6 -22
-14 -40 -18 -40 -4 0 -13 -21 -20 -46 -7 -26 -23 -70 -36 -98 -13 -28 -26 -61
-30 -73 -4 -13 -11 -23 -15 -23 -5 0 -16 -25 -26 -55 -9 -30 -20 -55 -24 -55
-4 0 -15 -22 -25 -50 -10 -27 -21 -50 -25 -50 -3 0 -14 -18 -24 -40 -9 -22
-21 -40 -26 -40 -5 0 -17 -22 -27 -50 -10 -27 -22 -50 -26 -50 -4 0 -8 -6 -8
-13 0 -17 -30 -78 -46 -94 -7 -7 -15 -27 -19 -45 -4 -18 -15 -42 -24 -53 -10
-11 -24 -35 -31 -52 -7 -18 -16 -33 -21 -33 -5 0 -9 -11 -9 -23 0 -13 -12 -42
-28 -63 -15 -21 -33 -51 -39 -66 -7 -16 -17 -28 -22 -28 -5 0 -12 -15 -16 -32
-4 -18 -22 -65 -41 -105 -19 -39 -34 -76 -34 -82 0 -6 -4 -11 -9 -11 -4 0 -16
-20 -25 -45 -10 -25 -21 -45 -26 -45 -5 0 -14 -16 -20 -35 -6 -19 -17 -38 -24
-42 -7 -5 -21 -27 -31 -50 -11 -24 -22 -43 -25 -43 -4 0 -12 -18 -19 -40 -6
-21 -17 -45 -24 -52 -7 -7 -21 -35 -31 -63 -11 -27 -22 -52 -26 -55 -3 -3 -14
-22 -23 -42 -10 -21 -22 -38 -27 -38 -5 0 -14 -18 -20 -40 -6 -21 -16 -45 -24
-52 -7 -8 -21 -31 -32 -53 -10 -22 -26 -47 -36 -57 -10 -10 -18 -25 -18 -33 0
-15 -30 -35 -54 -35 -12 0 -13 4 -1 28 7 15 16 66 20 115 4 48 11 87 16 87 6
0 10 24 9 53 -1 49 7 84 46 197 8 25 20 63 26 85 6 22 15 42 19 45 9 6 39 171
39 213 0 15 5 27 10 27 6 0 10 15 10 34 0 19 5 38 10 41 6 4 9 9 6 13 -7 12
13 203 22 215 9 12 26 109 37 210 4 31 10 57 14 57 7 0 18 35 38 120 3 14 10
27 14 30 4 3 15 57 24 120 9 63 20 128 26 144 5 16 14 59 20 95 5 36 16 79 24
96 22 48 45 118 45 141 0 11 4 24 9 30 13 13 41 125 41 162 0 17 4 33 9 36 4
3 12 25 16 48 5 24 10 48 11 53 1 6 2 20 3 32 0 12 7 28 14 35 6 7 12 18 12
23 0 15 38 129 45 135 3 3 12 25 19 50 8 25 20 54 26 65 7 11 20 45 30 75 10
30 26 67 36 82 11 14 19 30 19 34 0 4 23 54 50 110 28 56 50 108 50 116 0 13
92 162 126 203 9 11 21 30 27 43 5 12 13 22 17 22 4 0 13 18 20 40 7 22 24 47
37 55 12 9 23 20 23 26 0 14 65 79 79 79 6 0 14 6 17 14 12 30 102 76 167 85
4 1 16 -8 27 -19z"/>
<path d="M18397 16962 c-10 -10 -17 -27 -17 -38 -1 -10 -8 -37 -16 -59 -8 -22
-17 -57 -20 -77 -2 -21 -13 -64 -23 -95 -10 -32 -22 -73 -25 -90 -4 -18 -12
-35 -17 -38 -5 -4 -9 -17 -9 -31 0 -13 -4 -32 -10 -42 -5 -9 -16 -33 -25 -52
-8 -19 -22 -47 -30 -62 -8 -16 -22 -40 -30 -55 -17 -33 -47 -97 -114 -246 -17
-37 -31 -71 -31 -76 0 -5 -4 -11 -8 -13 -5 -1 -21 -28 -36 -58 -15 -30 -34
-68 -43 -85 -15 -29 -84 -120 -121 -160 -11 -11 -22 -27 -24 -35 -3 -8 -29
-46 -57 -83 -28 -37 -58 -82 -67 -100 -18 -34 -204 -220 -241 -240 -12 -7 -58
-40 -104 -74 -45 -35 -86 -63 -91 -63 -5 0 -37 -21 -71 -48 -34 -26 -73 -55
-87 -65 -101 -70 -136 -93 -151 -102 -10 -5 -38 -25 -64 -42 -25 -18 -67 -38
-93 -44 -26 -7 -51 -15 -57 -19 -37 -26 -212 -12 -280 23 -63 32 -161 108
-176 137 -8 14 -30 45 -50 70 -20 25 -47 68 -61 95 -14 28 -41 79 -60 115 -20
36 -39 81 -43 100 -3 19 -13 49 -20 65 -7 17 -19 59 -26 95 -6 36 -15 70 -20
75 -4 6 -15 53 -24 105 -9 52 -22 104 -28 115 -6 11 -11 111 -13 236 -3 187
-1 218 12 223 13 5 11 12 -10 39 -14 19 -26 39 -26 44 0 6 -15 22 -33 36 l-32
25 -37 -32 c-21 -17 -44 -47 -53 -66 -9 -19 -29 -57 -46 -85 -16 -27 -39 -68
-49 -90 -11 -22 -33 -60 -50 -85 -16 -25 -39 -63 -50 -85 -88 -168 -109 -212
-110 -228 0 -10 -8 -35 -19 -55 -42 -84 -60 -130 -71 -189 -7 -34 -22 -77 -33
-95 -11 -18 -22 -37 -23 -43 -1 -5 -170 -334 -376 -730 l-374 -720 -993 -1475
c-547 -811 -996 -1482 -998 -1490 -5 -20 22 -44 41 -37 12 5 75 94 356 508 36
53 85 125 110 160 24 35 43 66 43 69 -1 3 8 15 19 27 11 12 26 31 32 42 6 10
26 40 44 66 17 25 32 48 32 51 0 8 64 98 72 102 4 2 17 24 29 48 12 25 28 48
35 51 8 3 12 8 10 12 -3 4 13 29 35 57 21 27 42 57 45 67 4 9 10 17 15 17 5 0
9 6 9 14 0 8 14 28 30 44 17 17 30 38 30 47 0 9 5 13 10 10 6 -3 10 0 10 8 0
8 7 18 16 21 9 4 14 13 10 21 -3 9 1 18 9 21 8 4 24 26 34 50 11 24 26 44 33
44 19 0 60 67 45 74 -7 3 -3 7 10 11 12 4 24 14 27 22 4 8 2 11 -5 7 -8 -4 -7
0 0 15 7 11 18 21 26 21 10 0 15 10 15 28 0 17 3 22 8 15 5 -8 18 7 37 44 31
60 222 354 236 363 12 8 59 80 59 89 0 5 7 12 16 15 9 4 14 9 11 12 -3 4 22
47 56 96 34 49 71 105 82 124 11 19 25 34 31 34 10 0 26 26 38 62 3 10 63 102
133 205 109 160 179 274 227 370 6 13 15 23 19 23 5 0 5 5 2 11 -4 6 1 17 11
25 11 9 12 12 4 8 -8 -4 -5 2 6 14 12 11 30 42 40 69 9 26 23 55 31 64 7 8 13
23 13 32 0 9 4 17 8 17 4 0 15 15 23 33 8 17 26 55 41 82 14 28 48 95 76 150
159 323 400 782 413 790 5 4 9 12 9 19 0 21 317 629 323 619 10 -17 26 -235
32 -425 4 -145 16 -277 31 -353 8 -38 14 -80 14 -91 0 -18 58 -136 101 -204 5
-8 18 -33 30 -55 22 -40 90 -115 104 -115 4 0 38 -25 76 -55 37 -30 72 -55 77
-55 5 0 15 -7 22 -15 7 -9 15 -13 18 -10 3 3 11 0 19 -7 8 -7 71 -13 157 -16
128 -4 151 -2 212 17 38 13 85 33 104 45 19 13 52 33 73 45 20 13 37 27 37 32
0 5 6 9 13 9 6 0 37 17 68 38 31 20 70 45 85 54 16 10 56 38 89 62 33 25 63
45 68 45 11 1 46 39 40 44 -3 3 4 3 16 0 12 -3 21 -1 21 6 0 6 8 14 18 18 9 3
40 24 67 45 28 21 86 66 129 99 43 32 88 69 100 82 12 12 38 35 59 51 20 16
37 34 37 41 0 7 9 15 20 18 11 3 24 16 29 29 5 12 32 52 59 88 80 102 88 113
102 140 7 13 42 59 77 101 35 43 70 93 78 112 8 20 19 38 24 41 4 3 25 39 45
80 20 41 44 80 53 88 9 7 29 33 45 58 28 42 29 43 25 15 -3 -16 -11 -68 -17
-115 -7 -47 -16 -89 -20 -95 -4 -5 -11 -55 -15 -110 -6 -96 -20 -169 -140
-715 -69 -315 -101 -482 -115 -600 -6 -52 -16 -126 -21 -165 -5 -38 -14 -113
-19 -165 -5 -52 -15 -136 -21 -187 -5 -51 -10 -179 -9 -285 2 -187 0 -202 -44
-463 -37 -216 -310 -1952 -320 -2030 -1 -11 -6 -42 -10 -70 -4 -27 -23 -156
-42 -285 -19 -129 -39 -243 -44 -252 -6 -10 -10 -37 -10 -60 0 -54 -28 -238
-40 -260 -5 -9 -16 -78 -25 -154 -9 -76 -20 -143 -24 -149 -5 -5 -14 -66 -20
-135 -7 -69 -41 -314 -77 -545 -35 -231 -67 -436 -69 -455 -27 -191 -69 -436
-76 -441 -5 -3 -12 -19 -14 -35 -3 -16 -8 -42 -11 -58 -5 -19 -2 -31 7 -37 10
-6 11 -11 3 -16 -6 -5 -14 -43 -18 -85 -6 -68 -5 -78 9 -78 9 0 13 5 10 10 -3
6 3 10 13 10 11 0 25 6 31 14 6 8 70 395 142 862 71 467 134 851 138 854 5 3
9 19 10 35 3 89 11 149 20 155 7 3 16 33 22 66 19 109 27 169 23 175 -2 4 3
12 11 19 10 8 12 17 6 24 -12 14 -6 98 8 125 6 11 13 33 15 48 5 42 18 87 27
99 5 6 10 23 11 38 1 14 5 26 9 26 3 0 9 30 12 67 4 37 11 69 17 73 6 4 8 14
4 23 -3 9 -2 17 4 17 5 0 10 10 10 23 -1 58 6 113 14 124 5 7 7 17 4 22 -8 12
13 141 24 156 4 6 16 55 25 110 10 55 21 105 25 110 5 6 15 64 25 130 9 66 20
129 25 140 12 28 21 64 27 110 3 22 11 54 18 70 7 17 20 81 29 142 9 62 20
121 25 130 5 10 14 63 20 118 25 222 33 281 41 300 5 11 12 47 15 80 14 142
18 171 25 180 9 12 27 138 35 244 3 41 9 79 14 85 11 15 35 212 37 311 1 44 3
85 4 90 1 6 2 13 1 17 0 4 3 29 9 56 5 27 11 78 15 113 9 98 305 1946 316
1977 6 15 12 54 14 87 3 54 156 1034 171 1095 3 14 6 33 5 43 0 10 4 30 10 44
12 31 -11 73 -41 73 -10 0 -22 5 -25 10 -10 15 -30 12 -48 -8z"/>
<path d="M27292 14609 c-65 -32 -84 -52 -124 -134 -46 -93 -50 -125 -51 -540
-1 -347 14 -705 34 -815 23 -123 19 -144 -43 -268 -32 -63 -69 -128 -83 -145
-45 -55 -142 -191 -176 -248 -18 -30 -50 -77 -71 -106 -20 -28 -50 -73 -65
-101 -104 -183 -217 -300 -455 -466 -51 -36 -121 -86 -156 -111 -34 -25 -65
-45 -68 -45 -3 0 -24 -16 -47 -35 -44 -38 -210 -126 -391 -207 -242 -109 -230
-106 -466 -128 -63 -6 -124 -12 -135 -13 -11 -1 -21 5 -23 15 -2 12 12 26 47
45 28 15 51 34 51 41 0 8 27 39 60 70 49 44 72 77 114 161 29 58 61 120 70
137 36 69 67 199 73 301 8 150 -9 205 -104 328 -55 71 -149 152 -213 185 -105
54 -290 80 -421 59 -85 -13 -153 -44 -221 -102 l-48 -40 -28 26 c-32 31 -49
33 -80 11 -28 -20 -30 -74 -2 -99 10 -9 24 -43 31 -74 6 -31 15 -61 19 -66 9
-11 33 -80 45 -130 4 -16 9 -59 10 -95 2 -36 5 -83 8 -105 11 -89 28 -603 21
-645 -4 -25 -8 -56 -10 -70 -10 -85 -16 -120 -25 -165 -5 -27 -18 -142 -29
-255 -17 -179 -34 -357 -45 -455 -2 -17 -8 -49 -14 -70 -5 -22 -13 -62 -16
-90 -12 -93 -15 -106 -24 -123 -14 -26 -52 -188 -61 -257 -4 -33 -17 -103 -29
-155 -12 -52 -26 -138 -32 -190 -5 -52 -21 -133 -34 -180 -43 -148 -86 -341
-92 -409 -3 -36 -14 -99 -24 -138 -22 -83 -25 -166 -6 -180 6 -6 38 -13 70
-16 65 -6 77 4 77 65 0 18 9 80 20 138 32 172 50 320 50 405 0 44 7 105 15
135 8 30 28 147 45 260 17 113 37 225 44 250 42 136 77 279 96 390 40 241 79
496 95 630 10 74 22 148 27 163 19 51 202 175 306 207 56 17 89 21 382 40 161
11 200 21 390 100 212 87 435 213 550 310 30 25 88 70 128 99 39 29 80 63 90
74 9 12 30 29 46 37 75 38 344 310 385 388 7 15 60 97 116 182 56 85 126 196
155 245 85 144 90 151 91 135 0 -8 3 -152 5 -320 3 -224 8 -325 20 -380 12
-58 15 -125 12 -302 -3 -217 -2 -227 18 -255 17 -23 27 -27 55 -25 57 6 59 12
59 151 0 142 23 267 65 359 39 84 176 219 276 271 104 55 157 57 228 12 27
-17 65 -55 85 -84 20 -28 58 -78 85 -110 28 -34 77 -116 119 -201 83 -170 141
-239 254 -304 55 -31 88 -43 129 -47 30 -2 74 -11 98 -20 55 -19 232 -20 316
-1 176 39 399 138 513 228 26 21 64 50 86 65 21 16 52 40 68 56 16 15 34 27
39 27 4 0 15 12 23 28 8 15 31 43 51 62 50 47 119 145 149 210 14 30 27 47 29
39 2 -7 15 -48 27 -89 13 -41 26 -111 30 -155 11 -114 26 -163 63 -196 53 -49
86 -59 189 -59 126 0 170 15 455 157 100 49 122 65 197 143 83 86 115 136 157
242 11 29 33 69 47 88 l27 35 11 -175 c7 -96 16 -213 22 -260 6 -47 16 -132
22 -190 6 -58 15 -141 20 -185 6 -44 12 -132 14 -195 3 -63 8 -160 11 -215 4
-55 8 -136 10 -180 1 -44 5 -114 9 -155 9 -99 28 -584 32 -780 7 -424 32 -776
58 -819 24 -38 37 -603 17 -711 -6 -30 -17 -89 -25 -130 -15 -82 -36 -147 -72
-226 -35 -77 -229 -270 -313 -312 -35 -18 -72 -32 -81 -32 -10 0 -28 -9 -42
-20 -82 -64 -280 -67 -388 -6 -86 49 -267 280 -352 451 -69 136 -82 191 -77
326 4 103 6 108 55 210 57 117 102 175 152 196 43 18 40 47 -4 51 -24 2 -42
-6 -83 -40 -43 -35 -61 -61 -102 -147 -59 -123 -69 -168 -69 -315 1 -127 5
-150 54 -266 86 -202 157 -313 284 -443 73 -74 130 -109 219 -132 119 -31 205
-17 366 60 151 73 232 123 300 185 86 78 205 283 229 393 6 29 16 55 24 60 7
4 16 33 19 65 4 31 11 74 16 95 28 111 39 360 20 477 -6 36 -15 175 -21 310
-6 135 -15 299 -20 365 -15 174 -39 506 -50 685 -5 85 -15 196 -22 245 -14
105 -17 572 -4 690 7 66 5 92 -9 140 -25 88 -55 253 -55 307 0 26 -4 69 -9 95
-25 130 -31 200 -32 333 0 115 -5 173 -26 280 -14 74 -31 141 -37 149 -13 17
-92 7 -117 -15 -10 -9 -25 -50 -35 -93 -16 -76 -43 -151 -89 -246 -14 -27 -35
-75 -47 -106 -13 -30 -35 -70 -50 -87 -41 -49 -145 -123 -238 -170 -73 -36
-97 -43 -166 -48 -77 -6 -86 -4 -149 26 -59 28 -72 40 -110 100 -64 99 -95
200 -106 345 -4 66 -15 138 -23 160 -8 22 -15 51 -16 64 0 18 -4 22 -17 18
-10 -4 -38 -12 -63 -19 -25 -7 -48 -17 -51 -21 -4 -5 -9 -42 -13 -83 -8 -87
-19 -120 -80 -243 -78 -158 -168 -260 -371 -421 -24 -19 -61 -44 -82 -54 -21
-11 -47 -28 -58 -37 -11 -9 -36 -21 -55 -27 -66 -19 -125 -40 -197 -70 -95
-41 -267 -59 -363 -39 -40 8 -155 105 -166 140 -4 12 -21 45 -39 72 -18 28
-36 64 -39 80 -10 42 -49 106 -96 157 -59 63 -64 70 -90 108 -39 58 -172 191
-211 210 -96 49 -302 74 -362 44 -151 -79 -394 -332 -413 -430 -10 -55 -24
-39 -24 26 0 34 -7 96 -16 138 -13 61 -16 148 -18 412 -1 300 1 341 17 395 25
80 136 313 213 448 34 59 74 138 89 175 15 37 31 72 35 77 5 6 11 27 15 48 4
20 11 40 16 43 5 3 7 10 3 15 -3 5 0 16 6 24 7 8 16 29 20 47 5 18 21 78 35
133 23 86 27 122 28 255 2 221 -17 282 -117 388 -56 59 -84 72 -159 72 -51 0
-76 -6 -125 -31z m116 -233 c24 -27 32 -46 32 -74 0 -40 -34 -363 -50 -477 -5
-38 -14 -110 -20 -160 -21 -174 -74 -384 -101 -401 -5 -3 -9 -14 -9 -24 0 -11
-8 -33 -19 -50 l-18 -31 -12 53 c-6 29 -16 184 -21 343 -6 160 -12 295 -14
302 -6 15 10 312 23 430 10 84 33 158 54 174 15 11 122 -48 155 -85z m-2580
-1876 c133 -51 168 -75 241 -171 39 -50 75 -107 80 -127 20 -75 24 -262 8
-348 -41 -211 -203 -495 -338 -590 -35 -24 -144 -82 -290 -152 -3 -1 -9 19
-12 45 -4 26 -14 93 -23 148 -12 69 -18 169 -19 325 -3 278 -21 565 -40 645
-24 99 -22 107 41 156 106 81 247 109 352 69z"/>
<path d="M22868 12499 c-32 -4 -82 -20 -111 -34 -30 -14 -59 -25 -64 -25 -41
0 -233 -135 -347 -245 -54 -51 -156 -184 -156 -201 0 -3 -8 -18 -19 -32 -10
-15 -24 -45 -31 -67 -7 -22 -18 -49 -25 -60 -6 -11 -15 -37 -19 -59 -4 -21
-11 -35 -16 -30 -14 16 -69 236 -79 322 -6 45 -17 92 -25 105 -7 12 -17 35
-21 52 -11 48 -45 116 -61 122 -36 14 -63 -69 -30 -96 8 -7 17 -28 21 -49 4
-20 15 -55 25 -77 9 -22 23 -89 30 -150 7 -60 18 -119 25 -130 7 -11 18 -45
25 -75 7 -30 16 -60 21 -66 5 -5 16 -53 25 -105 9 -52 19 -98 24 -104 4 -5 13
-42 20 -82 8 -49 18 -77 32 -90 15 -13 22 -15 25 -5 3 6 15 12 28 12 36 0 49
23 36 63 -16 49 -15 182 3 257 17 72 91 228 118 248 10 7 18 22 18 32 0 22 32
43 52 35 8 -3 24 8 36 25 13 16 28 30 35 30 7 1 28 14 47 30 19 17 39 30 45
30 6 0 20 10 31 23 11 12 47 35 80 51 32 15 70 34 84 42 14 7 41 21 60 30 19
9 44 24 55 34 12 10 44 20 80 24 33 4 84 12 114 17 41 9 59 8 78 -2 32 -17 57
-2 61 37 2 24 -8 39 -60 90 -86 84 -125 95 -270 73z"/>
<path d="M20248 12147 c-28 -11 -28 -12 -28 -99 0 -48 -4 -88 -9 -88 -5 0 -11
-65 -13 -145 -2 -88 -7 -149 -14 -153 -5 -4 -16 -21 -22 -37 -7 -17 -31 -50
-52 -74 -22 -24 -40 -46 -40 -50 0 -3 -18 -23 -40 -45 -22 -21 -40 -42 -40
-47 0 -12 -81 -88 -100 -94 -9 -3 -23 -17 -30 -30 -7 -14 -19 -25 -26 -25 -6
0 -14 -7 -18 -15 -3 -8 -14 -15 -25 -15 -11 0 -26 -9 -33 -19 -8 -12 -40 -27
-79 -37 -35 -9 -73 -20 -84 -24 -11 -5 -50 -11 -87 -13 l-68 -5 -39 43 c-23
25 -44 61 -51 87 -7 23 -16 50 -20 59 -22 42 -30 155 -29 412 1 199 -3 282
-11 292 -8 10 -31 13 -78 12 l-66 -3 -23 -44 c-21 -40 -25 -66 -34 -240 -6
-107 -9 -249 -7 -315 4 -107 8 -126 31 -165 14 -25 29 -61 32 -82 7 -39 50
-80 117 -111 20 -10 40 -21 43 -26 8 -14 172 -34 216 -27 62 10 132 36 152 57
10 10 25 19 34 19 9 0 23 7 32 15 9 8 49 43 89 77 39 34 72 67 72 73 0 6 13
19 29 28 17 10 51 43 78 75 62 74 160 172 172 172 5 0 13 10 17 22 3 12 13 28
20 36 17 17 20 10 28 -72 4 -33 11 -64 15 -70 5 -6 17 -51 27 -101 9 -49 21
-95 26 -102 5 -6 17 -32 26 -56 23 -60 92 -133 139 -147 124 -38 202 -45 311
-30 98 14 192 48 270 99 54 34 62 54 31 74 -17 11 -81 -12 -94 -33 -3 -6 -14
-10 -23 -10 -10 0 -36 -9 -57 -20 -22 -12 -62 -25 -90 -31 -62 -12 -175 -2
-175 16 0 7 -7 19 -16 26 -22 18 -71 93 -110 169 -7 14 -18 70 -24 125 -6 55
-16 104 -21 109 -5 6 -9 28 -9 50 0 23 -7 86 -15 141 -8 55 -15 141 -15 191 0
49 -4 94 -9 100 -5 5 -11 27 -13 49 -2 32 -9 44 -37 62 -37 25 -87 28 -133 10z"/>
<path d="M29255 7404 c-215 -15 -3667 -144 -3953 -148 -194 -3 -360 -10 -370
-15 -21 -11 -639 -36 -807 -33 -11 0 -96 -4 -190 -9 -93 -5 -224 -11 -290 -14
-66 -3 -259 -12 -430 -20 -170 -8 -443 -19 -605 -25 -162 -5 -396 -15 -520
-20 -124 -6 -342 -15 -485 -20 -143 -6 -359 -17 -480 -25 -121 -8 -272 -17
-335 -20 -63 -3 -126 -10 -140 -15 -14 -5 -187 -11 -385 -13 -295 -3 -366 -6
-395 -19 -24 -10 -73 -15 -155 -17 -66 -1 -149 -6 -185 -11 -72 -11 -957 -65
-1225 -75 -168 -6 -288 -11 -435 -19 -41 -3 -167 -9 -280 -15 -113 -6 -225
-14 -250 -18 -25 -3 -137 -7 -250 -8 -113 0 -500 -15 -860 -31 -360 -17 -668
-31 -685 -32 -16 0 -217 -9 -445 -20 -228 -12 -523 -26 -655 -31 -132 -6 -643
-29 -1135 -52 -492 -22 -923 -38 -958 -34 -34 3 -91 1 -125 -5 l-64 -11 -774
-630 c-426 -347 -786 -641 -802 -654 -15 -14 -45 -36 -67 -50 -22 -14 -40 -30
-40 -35 0 -6 -5 -10 -12 -10 -6 0 -35 -23 -64 -50 -29 -28 -73 -59 -97 -69
-48 -21 -57 -35 -57 -85 0 -25 8 -40 32 -60 17 -14 40 -26 49 -26 21 0 1730
-693 1777 -721 18 -10 41 -19 50 -19 39 -1 278 -108 308 -139 30 -30 32 -31
80 -20 102 22 237 31 509 33 55 0 102 4 105 7 3 4 88 9 190 12 102 4 210 9
240 11 30 3 123 8 205 11 231 8 866 42 1200 64 2194 146 12419 783 12915 805
47 2 339 20 650 40 311 20 607 37 658 37 121 1 188 28 228 91 15 24 41 61 58
82 30 39 96 161 96 179 0 6 13 37 29 71 15 34 32 72 36 86 4 14 11 30 15 35 5
6 16 39 25 75 9 36 19 72 22 80 4 8 14 49 23 91 14 65 16 131 14 435 -3 393
-3 385 -28 463 -11 32 -16 68 -13 92 3 24 1 40 -7 43 -8 3 -7 7 3 14 12 9 12
13 -2 27 -16 15 -18 23 -22 65 0 8 -5 21 -9 29 -5 7 -20 52 -33 100 -14 47
-30 104 -37 125 -6 22 -31 62 -56 88 l-45 49 -100 3 c-55 2 -127 2 -160 0z
m216 -74 c10 0 19 -5 19 -11 0 -6 11 -24 25 -41 14 -16 25 -36 25 -44 0 -8 9
-34 19 -58 11 -23 25 -73 32 -112 6 -38 15 -73 19 -79 14 -17 40 -162 40 -219
0 -30 5 -58 10 -61 6 -3 10 -23 10 -44 0 -21 5 -63 11 -92 7 -33 10 -156 9
-314 -1 -254 -11 -397 -29 -419 -4 -6 -16 -42 -26 -81 -10 -38 -22 -74 -25
-80 -4 -5 -11 -26 -15 -45 -4 -19 -18 -55 -30 -80 -24 -45 -61 -126 -89 -190
-23 -52 -34 -67 -115 -147 -41 -40 -86 -76 -100 -80 -13 -3 -90 -3 -170 1
-154 7 -570 -17 -603 -35 -26 -14 -35 -11 -67 17 -30 26 -31 42 -6 74 6 8 22
42 35 75 13 33 26 65 30 70 4 6 11 28 15 50 3 22 19 72 35 110 47 119 69 179
76 210 4 17 12 37 19 45 7 8 20 53 30 100 9 47 21 93 26 102 11 22 12 401 0
413 -4 6 -16 51 -26 100 -9 50 -23 97 -30 105 -8 9 -19 38 -25 65 -6 27 -15
54 -20 60 -5 6 -16 55 -25 110 -8 55 -22 118 -29 140 -8 22 -19 69 -26 105 -6
36 -15 70 -19 75 -4 6 -14 26 -21 45 -8 19 -27 52 -43 73 -48 62 -41 65 146
66 91 0 236 3 323 7 344 14 540 21 552 17 8 -1 22 -3 33 -3z m-1216 -40 c22
-5 41 -14 43 -20 2 -6 11 -18 20 -27 24 -23 82 -115 82 -129 0 -6 6 -24 14
-40 8 -16 20 -63 26 -104 7 -41 16 -80 21 -86 5 -6 16 -57 25 -115 9 -57 22
-113 29 -124 7 -11 15 -33 18 -50 3 -16 13 -47 21 -67 9 -21 17 -41 17 -45 1
-5 5 -15 10 -24 26 -49 52 -466 31 -493 -6 -6 -13 -27 -17 -46 -4 -19 -16 -50
-26 -68 -10 -18 -19 -38 -19 -43 0 -6 -11 -34 -24 -62 -14 -29 -28 -65 -32
-82 -4 -16 -17 -53 -30 -80 -12 -28 -26 -64 -30 -80 -4 -17 -15 -46 -26 -65
-10 -19 -18 -41 -18 -48 0 -14 -53 -116 -73 -141 -6 -7 -10 -26 -9 -42 3 -21
-6 -38 -36 -71 -38 -41 -42 -42 -109 -46 -66 -4 -71 -3 -91 23 -30 38 -27 68
9 110 30 34 77 114 118 201 11 23 24 45 29 48 6 3 13 21 17 39 4 17 15 57 25
87 23 71 41 171 50 290 4 52 13 133 19 180 8 58 9 104 2 145 -5 33 -15 96 -21
140 -6 44 -15 103 -20 130 -5 28 -16 91 -25 140 -8 50 -20 110 -25 135 -6 25
-14 68 -19 95 -15 84 -95 259 -156 343 -33 46 -22 73 36 89 55 14 93 15 144 3z
m-329 -17 c-10 -10 24 -62 43 -68 11 -3 24 -18 31 -33 6 -15 24 -49 40 -77 16
-27 36 -66 44 -85 9 -19 20 -42 26 -50 6 -8 17 -31 26 -50 8 -19 21 -46 28
-60 8 -14 19 -68 26 -120 7 -52 16 -99 20 -105 7 -9 21 -119 36 -285 3 -41 11
-81 18 -89 15 -20 15 -393 0 -412 -7 -8 -17 -41 -24 -74 -6 -33 -17 -69 -24
-80 -7 -11 -18 -46 -25 -78 -11 -52 -47 -133 -84 -192 -37 -58 -54 -93 -60
-117 -8 -30 -125 -176 -157 -196 -11 -7 -19 -16 -16 -20 2 -4 -33 -8 -79 -7
-46 0 -81 -3 -79 -7 3 -5 -14 -8 -38 -9 -24 0 -95 -4 -158 -9 -198 -16 -546
-38 -1475 -95 -1657 -102 -2514 -154 -3420 -210 -495 -31 -909 -54 -919 -51
-11 3 -83 1 -160 -5 -5388 -363 -5948 -398 -7341 -463 -1315 -62 -1432 -66
-1573 -46 -1 0 2 8 7 18 24 43 61 125 61 133 0 6 9 29 21 52 14 29 25 86 35
182 8 77 19 148 25 157 5 10 9 44 9 77 0 40 5 63 15 71 8 7 15 27 15 44 0 18
6 38 12 44 16 16 15 266 0 285 -6 7 -16 68 -22 137 -12 136 -14 149 -37 198
-16 37 -32 134 -33 200 0 23 -4 51 -10 62 -5 11 -14 29 -20 40 -5 11 -10 25
-10 33 0 7 -9 29 -20 49 -11 20 -24 58 -31 85 -11 51 -24 83 -57 148 -12 22
-30 59 -42 83 -21 42 -160 190 -235 250 -38 30 -39 31 -15 32 111 4 209 10
290 19 87 10 461 24 975 37 110 3 277 12 370 20 94 8 343 21 555 29 212 8 489
19 615 25 394 17 785 32 910 35 66 2 190 7 275 11 201 9 285 12 395 13 49 0
119 5 155 11 36 6 425 26 865 45 440 19 868 39 950 45 83 5 224 12 315 15 182
6 310 14 321 21 9 5 1443 94 1589 98 109 3 202 10 280 21 55 7 336 18 560 20
113 2 246 8 295 15 73 9 1905 84 2565 105 91 2 201 7 245 10 44 3 370 17 725
31 844 32 1308 51 1785 73 386 19 601 23 591 14z m-15731 -755 c6 -12 25 -29
42 -37 18 -9 33 -21 33 -27 0 -6 12 -17 26 -25 43 -22 177 -173 206 -231 60
-119 103 -220 123 -288 36 -125 44 -161 50 -225 7 -70 17 -114 41 -170 7 -16
18 -91 24 -165 7 -74 17 -141 22 -148 15 -18 3 -149 -17 -179 -12 -18 -16 -47
-15 -111 1 -89 -7 -149 -20 -167 -4 -5 -13 -66 -20 -135 -8 -73 -21 -142 -32
-167 -10 -23 -18 -47 -18 -54 0 -7 -13 -39 -29 -73 -15 -34 -30 -65 -32 -71
-10 -26 -55 -85 -65 -85 -6 0 -17 7 -24 15 -7 8 -22 15 -33 15 -20 0 -639 247
-717 286 -19 10 -56 32 -81 50 -25 17 -61 35 -80 39 -19 4 -38 11 -44 15 -5 4
-26 11 -45 15 -34 7 -61 20 -90 41 -25 18 -161 63 -175 57 -8 -2 -21 -1 -29 4
-14 8 -12 14 13 48 90 124 127 212 140 333 20 184 12 374 -18 437 -43 91 -56
116 -81 160 -47 83 -45 88 87 195 64 52 137 110 161 127 25 18 62 48 81 66 20
18 104 88 186 154 83 67 204 166 270 221 66 55 127 101 135 101 8 1 20 -9 25
-21z m-1039 -1167 c30 -27 59 -104 50 -133 -2 -7 -7 -25 -10 -40 l-6 -28 -103
1 c-56 1 -131 4 -165 8 l-64 6 54 53 c29 29 67 60 83 71 17 10 36 25 44 34 7
10 19 17 26 17 6 0 20 9 30 20 23 25 24 25 61 -9z"/>
<path d="M22382 6548 c-11 -11 -10 -160 3 -300 l4 -47 -36 -3 c-73 -6 -66 -68
7 -68 l37 0 12 -122 c26 -268 29 -277 80 -330 52 -54 112 -76 174 -64 74 14
194 136 171 174 -21 33 -50 26 -83 -21 -42 -61 -107 -93 -156 -77 -19 6 -45
24 -59 40 -26 32 -31 53 -46 203 -6 55 -13 123 -16 152 -8 62 -16 56 114 74
73 10 102 23 102 46 0 32 -26 37 -124 24 -53 -7 -99 -9 -103 -5 -5 4 -10 74
-14 156 -5 146 -13 180 -43 180 -7 0 -17 -5 -24 -12z"/>
<path d="M17750 6395 c-10 -11 -8 -37 9 -122 22 -118 46 -396 56 -653 8 -200
18 -280 46 -362 45 -130 99 -183 179 -174 40 4 51 11 97 63 58 63 72 95 53
118 -21 25 -36 17 -85 -42 -26 -32 -54 -61 -63 -64 -32 -12 -62 14 -92 77 -40
85 -57 192 -65 409 -12 312 -54 715 -78 753 -11 16 -42 15 -57 -3z"/>
<path d="M25025 6327 c-43 -42 -45 -46 -45 -102 0 -55 2 -60 41 -96 36 -33
129 -79 160 -79 5 0 23 -7 39 -15 40 -21 57 -80 36 -130 -27 -64 -109 -87
-227 -65 -65 13 -84 30 -84 77 0 43 -25 65 -52 47 -14 -9 -18 -25 -18 -63 1
-44 5 -55 34 -85 27 -28 45 -36 95 -45 146 -25 232 -7 293 62 36 41 48 89 39
150 -13 77 -58 116 -171 151 -33 10 -72 27 -87 38 -37 26 -38 70 -2 103 36 33
123 35 194 4 51 -22 76 -20 86 6 18 45 -75 85 -197 85 l-89 0 -45 -43z"/>
<path d="M16448 6333 c-18 -22 3 -47 49 -57 l39 -8 14 -74 c10 -57 11 -137 5
-351 -5 -153 -9 -406 -9 -563 l-1 -285 -44 0 c-57 0 -76 -24 -44 -57 22 -21
22 -21 159 -7 106 11 139 18 147 31 20 31 -8 48 -78 48 l-62 0 -6 243 c-3 136
-1 286 4 343 11 110 7 612 -6 656 l-7 27 62 3 c70 3 95 22 71 52 -19 23 -274
22 -293 -1z"/>
<path d="M17091 6336 c-10 -12 -9 -27 4 -78 43 -168 78 -718 57 -892 -24 -193
-13 -261 55 -336 42 -47 48 -50 95 -50 45 0 53 4 94 45 48 47 55 78 22 99 -14
9 -25 3 -61 -32 -23 -23 -50 -42 -59 -42 -26 0 -65 55 -78 110 -10 40 -9 75 1
171 26 242 -20 896 -71 999 -10 21 -44 24 -59 6z"/>
<path d="M20239 6334 c-10 -12 -15 -64 -19 -185 -3 -92 -9 -171 -13 -175 -4
-4 -23 -10 -43 -13 -73 -12 -68 -71 6 -71 l38 0 4 -182 c5 -205 12 -233 73
-287 62 -54 154 -39 272 45 71 51 94 84 73 109 -7 8 -16 15 -21 15 -4 0 -41
-24 -82 -53 -84 -60 -153 -85 -185 -68 -46 24 -55 64 -60 256 l-4 180 94 16
c110 19 153 37 153 63 0 35 -27 41 -111 22 -44 -9 -90 -20 -103 -22 l-24 -5 5
175 c5 173 1 196 -28 196 -6 0 -18 -7 -25 -16z"/>
<path d="M24309 6285 c-25 -8 -66 -32 -90 -54 l-44 -39 -27 32 c-22 26 -29 29
-45 20 -21 -14 -21 -43 1 -99 8 -22 16 -65 16 -95 2 -101 26 -250 44 -268 26
-27 52 -4 49 44 -9 166 -5 271 10 301 30 57 123 104 190 95 48 -6 73 -77 90
-255 12 -130 17 -151 37 -172 38 -40 81 -34 125 17 39 46 43 83 12 102 -15 9
-23 5 -51 -29 -34 -40 -34 -40 -40 -15 -3 14 -10 81 -16 150 -13 137 -41 217
-90 252 -35 25 -115 31 -171 13z"/>
<path d="M26235 6231 c-11 -5 -31 -21 -45 -36 -20 -22 -25 -37 -25 -81 0 -47
4 -57 33 -86 30 -30 37 -33 97 -33 60 0 67 3 97 33 29 29 33 39 33 87 0 48 -4
58 -32 86 -26 27 -41 33 -85 36 -29 1 -62 -1 -73 -6z"/>
<path d="M23560 6162 c-85 -84 -102 -202 -45 -317 31 -65 66 -91 135 -100 69
-9 119 8 166 57 70 73 94 117 94 172 0 46 -3 52 -52 98 -29 27 -66 61 -82 76
-49 47 -79 62 -125 62 -39 0 -49 -5 -91 -48z m116 -39 c11 -37 21 -46 64 -60
48 -15 100 -62 100 -90 0 -24 -55 -106 -87 -129 -39 -28 -66 -34 -112 -22 -35
9 -42 16 -65 70 -31 70 -31 69 -10 138 24 81 95 141 110 93z"/>
<path d="M23062 6168 c-19 -19 -14 -139 12 -260 30 -142 37 -159 76 -191 43
-36 75 -34 116 7 37 37 44 75 19 96 -20 16 -43 6 -57 -25 -14 -30 -33 -32 -48
-4 -19 35 -60 245 -60 307 0 56 -11 82 -35 82 -6 0 -16 -5 -23 -12z"/>
<path d="M21915 6010 c-4 -6 -21 -8 -41 -4 -19 3 -59 3 -90 -1 -47 -6 -64 -14
-100 -47 -62 -57 -87 -128 -82 -234 6 -141 66 -200 197 -192 60 4 67 7 97 42
l32 37 14 -27 c16 -35 69 -71 116 -80 32 -6 39 -3 74 35 42 45 47 76 15 95
-16 9 -23 5 -48 -23 -25 -31 -32 -34 -55 -25 -42 14 -56 68 -59 217 -1 70 -5
131 -9 134 -3 3 -6 18 -6 33 0 40 -38 67 -55 40z m-42 -79 c21 -8 25 -18 31
-74 8 -80 -6 -147 -42 -204 -64 -101 -192 -49 -192 78 0 56 32 148 60 174 31
28 102 41 143 26z"/>
<path d="M21045 5962 c-17 -11 -51 -42 -77 -70 l-46 -52 -13 57 c-16 64 -39
87 -65 62 -14 -15 -14 -25 1 -120 9 -57 22 -133 30 -169 7 -36 16 -90 20 -120
11 -86 44 -123 76 -84 10 13 9 34 -5 122 -22 129 -15 166 44 241 64 81 113 97
197 65 49 -19 76 -7 71 30 -7 51 -169 77 -233 38z"/>
<path d="M19492 5866 c-71 -77 -69 -145 8 -221 49 -48 49 -48 133 -55 131 -10
183 -61 142 -137 -28 -51 -67 -74 -134 -80 -48 -5 -67 -1 -105 18 -26 12 -52
34 -59 48 -15 31 -63 36 -81 9 -15 -24 36 -85 98 -119 133 -73 293 -25 356
107 26 53 22 91 -15 140 -42 55 -91 78 -178 85 -70 5 -81 9 -109 36 -36 36
-39 73 -10 111 16 22 27 27 64 26 41 0 88 -17 130 -46 20 -14 48 4 48 32 0 42
-98 89 -186 90 -60 0 -62 -1 -102 -44z"/>
<path d="M18882 5808 c-8 -8 -12 -60 -12 -169 l0 -157 -36 -84 c-53 -125 -56
-128 -115 -128 -27 0 -62 6 -77 14 -66 34 -122 214 -125 406 -2 67 -5 85 -19
94 -14 8 -22 7 -35 -7 -32 -32 -20 -224 24 -383 17 -63 83 -158 125 -180 20
-10 59 -17 104 -17 68 -1 75 1 105 28 17 17 39 45 49 64 l17 35 18 -37 c20
-43 63 -77 96 -77 32 0 79 48 79 81 0 50 -55 65 -67 19 -7 -27 -25 -21 -42 15
-10 21 -14 85 -16 247 -2 225 -7 248 -44 248 -9 0 -22 -5 -29 -12z"/>
<path d="M15795 5711 c-11 -5 -31 -21 -45 -36 -20 -22 -25 -37 -25 -81 0 -47
4 -57 33 -86 29 -29 39 -33 87 -33 79 0 120 41 120 120 0 48 -4 58 -31 86 -34
33 -99 48 -139 30z"/>
</g>
</svg>
