<?xml version="1.0" standalone="no"?>
<!DOCTYPE svg PUBLIC "-//W3C//DTD SVG 20010904//EN"
 "http://www.w3.org/TR/2001/REC-SVG-20010904/DTD/svg10.dtd">
<svg version="1.0" xmlns="http://www.w3.org/2000/svg"
 width="1696.000000pt" height="1696.000000pt" viewBox="0 0 1696.000000 1696.000000"
 preserveAspectRatio="xMidYMid meet">
<metadata>
Created by potrace 1.16, written by Peter Selinger 2001-2019
</metadata>
<g transform="translate(0.000000,1696.000000) scale(0.100000,-0.100000)"
fill="#000000" stroke="none">
<path d="M10520 15834 c-14 -2 -59 -9 -100 -15 -41 -6 -79 -14 -85 -19 -5 -4
-37 -15 -70 -25 -33 -10 -67 -24 -75 -30 -8 -6 -31 -18 -50 -25 -19 -7 -42
-19 -51 -27 -8 -7 -21 -13 -27 -13 -6 0 -35 -13 -65 -30 -30 -16 -62 -30 -70
-30 -8 0 -20 -7 -27 -15 -7 -8 -51 -34 -99 -58 -105 -52 -132 -69 -196 -122
-27 -23 -68 -53 -90 -67 -22 -14 -49 -35 -59 -47 -11 -12 -39 -30 -63 -41 -24
-10 -43 -23 -43 -29 0 -5 -24 -26 -52 -47 -29 -20 -102 -87 -161 -148 -133
-135 -137 -140 -137 -153 0 -6 -28 -41 -63 -79 -89 -98 -147 -170 -147 -183 0
-6 -4 -11 -10 -11 -15 0 -60 23 -60 31 0 11 -139 110 -190 135 -25 12 -70 30
-100 40 -30 9 -64 22 -75 29 -11 7 -47 18 -80 25 -33 7 -65 16 -71 21 -17 14
-230 29 -409 29 -160 0 -322 -13 -360 -30 -11 -4 -67 -16 -125 -25 -58 -10
-109 -21 -115 -25 -5 -4 -48 -15 -95 -24 -47 -10 -104 -26 -127 -37 -24 -10
-51 -19 -60 -19 -10 0 -40 -12 -68 -25 -27 -14 -56 -25 -62 -25 -7 0 -34 -11
-60 -25 -67 -35 -180 -85 -193 -85 -6 0 -23 -8 -38 -18 -66 -46 -109 -72 -115
-72 -3 0 -26 -13 -50 -30 -25 -16 -48 -30 -51 -30 -7 0 -16 -6 -108 -68 -25
-18 -50 -32 -54 -32 -4 0 -26 -16 -50 -35 -24 -20 -58 -42 -76 -51 -18 -8 -53
-30 -78 -49 -25 -19 -70 -51 -100 -71 -30 -20 -64 -42 -75 -50 -11 -8 -45 -30
-75 -51 -30 -20 -64 -44 -75 -54 -11 -9 -47 -32 -80 -50 -123 -66 -249 -179
-425 -379 -30 -35 -66 -72 -79 -84 -13 -12 -36 -33 -50 -48 -14 -16 -29 -28
-33 -28 -8 0 -80 -64 -147 -131 -106 -106 -231 -238 -231 -244 0 -4 -21 -28
-47 -55 -27 -26 -64 -70 -83 -98 -19 -28 -38 -51 -42 -52 -4 0 -15 -14 -23
-31 -9 -16 -23 -38 -31 -47 -34 -37 -124 -162 -124 -172 0 -5 -9 -14 -20 -20
-11 -6 -20 -16 -20 -22 0 -6 -12 -27 -27 -47 -39 -51 -73 -101 -73 -108 0 -3
-11 -21 -25 -39 -14 -18 -29 -44 -35 -58 -5 -14 -14 -26 -19 -26 -6 0 -19 -19
-31 -42 -11 -24 -38 -77 -60 -118 -22 -41 -44 -86 -50 -100 -5 -14 -20 -41
-31 -60 -45 -72 -107 -197 -113 -227 -4 -17 -16 -39 -27 -49 -10 -9 -19 -24
-19 -32 0 -7 -8 -26 -19 -40 -10 -15 -28 -47 -39 -72 -12 -25 -25 -52 -30 -60
-22 -38 -34 -62 -102 -200 -22 -47 -45 -92 -50 -100 -25 -44 -61 -130 -70
-170 -6 -25 -15 -54 -20 -65 -5 -11 -14 -45 -19 -75 -14 -93 -86 -320 -136
-430 -26 -58 -56 -139 -67 -180 -11 -41 -23 -79 -27 -85 -5 -5 -14 -32 -20
-60 -7 -27 -18 -63 -26 -80 -7 -16 -21 -64 -30 -105 -10 -41 -21 -79 -25 -85
-4 -5 -15 -55 -25 -110 -9 -55 -21 -104 -25 -110 -9 -11 -40 -214 -40 -258 0
-15 -4 -35 -9 -45 -5 -9 -17 -62 -27 -117 -10 -55 -21 -104 -25 -110 -4 -5
-13 -46 -19 -90 -7 -44 -19 -91 -26 -105 -7 -14 -20 -61 -30 -105 -9 -44 -20
-84 -24 -90 -20 -26 -43 -204 -51 -393 -8 -203 -23 -374 -33 -391 -7 -11 -28
-142 -32 -201 -2 -25 -8 -81 -13 -125 -23 -178 -41 -593 -28 -640 9 -31 22
-132 32 -240 3 -33 10 -80 15 -105 13 -61 37 -204 45 -265 4 -27 11 -54 15
-60 16 -20 40 -134 40 -191 0 -33 7 -88 14 -124 8 -36 12 -77 9 -91 -8 -41 61
-276 107 -369 13 -25 27 -56 33 -70 5 -14 14 -33 19 -43 5 -10 20 -57 33 -105
36 -133 81 -250 111 -294 24 -34 28 -49 26 -100 -2 -33 1 -65 6 -72 14 -17 42
-106 42 -131 0 -41 38 -140 71 -189 39 -55 39 -55 68 -116 12 -25 34 -65 50
-90 15 -26 36 -71 46 -100 10 -30 23 -62 30 -70 7 -8 19 -32 26 -54 8 -21 20
-41 26 -43 7 -3 13 -10 13 -16 0 -5 11 -24 24 -42 13 -17 32 -47 41 -66 9 -19
29 -56 45 -84 16 -27 37 -66 47 -85 9 -19 22 -42 28 -50 7 -8 18 -31 25 -50
18 -44 107 -180 131 -200 3 -3 13 -18 22 -35 45 -88 269 -316 413 -420 85 -62
152 -114 273 -212 28 -23 70 -51 142 -98 9 -5 43 -28 75 -50 88 -61 107 -73
139 -91 17 -9 37 -22 45 -29 8 -7 46 -29 85 -49 38 -20 76 -42 85 -50 19 -16
94 -51 180 -83 35 -14 76 -31 90 -38 14 -8 82 -39 152 -69 69 -31 162 -77 205
-102 64 -39 89 -48 138 -52 33 -2 66 -9 73 -15 18 -14 518 -11 592 4 30 6 129
18 220 26 91 8 172 18 180 21 8 3 62 11 119 17 76 9 107 17 117 29 6 9 45 26
85 37 41 11 91 29 112 39 22 11 49 20 61 20 13 0 67 23 121 50 54 28 104 50
110 50 6 0 56 22 110 50 54 27 104 50 110 50 16 0 73 29 80 40 3 5 52 32 109
60 57 28 110 57 116 65 7 8 18 15 25 15 7 0 18 7 25 15 7 9 33 25 56 35 24 11
46 24 49 30 3 6 26 19 50 30 24 11 47 24 50 30 3 6 25 19 49 30 23 10 49 26
56 35 7 8 18 15 25 15 6 0 20 9 30 20 10 11 23 20 30 20 6 0 24 13 40 30 16
16 34 30 40 30 7 0 20 9 30 20 10 11 23 20 30 20 6 0 24 14 40 30 16 17 34 30
40 30 6 0 24 14 40 30 16 17 34 30 40 30 6 0 24 14 40 30 16 17 34 30 40 30
15 0 185 175 185 190 0 5 6 10 13 10 15 0 127 111 127 126 0 5 18 28 40 49 22
21 40 44 40 50 0 26 88 103 141 123 88 34 156 70 162 86 4 9 13 16 22 16 8 0
36 15 62 33 27 19 147 88 268 155 145 80 246 143 295 184 95 80 169 129 278
184 48 25 114 60 147 79 33 20 71 41 85 48 14 6 31 17 38 24 7 7 19 13 26 13
7 0 33 16 57 35 24 19 50 35 57 35 6 0 12 3 12 8 0 4 21 19 48 32 26 14 49 28
50 33 2 4 9 7 16 7 7 0 22 9 33 20 12 10 51 35 87 54 36 19 75 44 86 54 11 10
38 24 59 31 22 6 50 22 63 36 12 14 28 25 34 25 7 0 15 7 18 16 3 8 10 13 16
9 13 -8 52 13 45 25 -3 5 5 12 17 16 13 4 24 5 24 3 1 -2 11 7 23 21 11 14 20
22 21 17 1 -28 203 129 275 215 34 41 94 134 146 228 19 36 167 286 329 555
161 270 342 573 403 675 61 102 121 198 134 213 13 16 23 39 23 52 0 12 6 28
14 34 8 7 33 49 56 94 22 45 45 89 50 97 5 8 16 31 26 50 9 19 30 61 46 92 15
32 35 76 43 98 8 22 22 58 30 79 8 21 24 55 37 75 63 97 80 129 89 160 5 18
20 50 34 70 14 20 25 47 25 59 0 12 17 46 38 74 54 75 145 222 161 260 7 18
17 33 22 33 5 0 9 6 9 13 0 7 5 18 12 25 6 6 13 18 14 26 2 15 43 76 57 87 5
3 9 10 9 15 1 16 11 38 37 79 13 22 52 95 86 161 34 67 70 134 81 150 50 76
102 170 116 213 7 20 17 43 24 51 6 8 14 31 18 51 3 19 15 53 26 74 11 21 25
54 31 74 6 20 17 43 23 51 7 8 20 42 31 75 10 33 25 68 33 78 8 9 12 17 9 17
-8 0 13 61 28 80 6 8 17 35 24 60 13 45 34 103 54 150 6 14 10 29 9 33 -3 9
44 104 88 182 28 47 44 80 75 150 8 17 21 57 30 90 9 33 21 69 26 80 5 11 13
54 18 95 5 41 18 104 30 139 12 35 27 103 32 150 5 47 13 97 19 111 5 14 16
72 25 130 26 173 75 360 124 475 5 11 14 40 21 65 6 25 18 59 25 75 8 17 16
48 18 70 2 22 45 238 95 480 50 242 134 670 187 950 52 281 107 562 121 625
39 173 39 186 4 245 -17 28 -39 69 -50 91 -11 23 -27 44 -35 48 -8 3 -15 11
-15 17 0 26 -208 199 -239 199 -6 0 -11 4 -11 9 0 5 -17 18 -37 28 -172 90
-299 153 -308 153 -6 0 -28 9 -50 20 -22 11 -73 27 -114 36 -42 8 -82 20 -90
27 -22 18 -495 13 -641 -8 -63 -9 -146 -21 -185 -26 -38 -5 -97 -17 -130 -25
-33 -8 -85 -19 -115 -25 -30 -5 -104 -21 -165 -37 l-110 -28 -53 -69 -52 -70
1 -105 c1 -58 -5 -159 -13 -225 -17 -129 -16 -124 -58 -265 -23 -77 -52 -189
-64 -245 -1 -5 -4 -14 -8 -20 -3 -5 -13 -53 -23 -105 -9 -52 -26 -114 -36
-138 -11 -24 -17 -47 -13 -53 6 -10 -14 -107 -26 -124 -4 -5 -15 -46 -25 -90
-10 -44 -21 -84 -25 -90 -7 -9 -22 -90 -35 -189 -3 -15 -9 -33 -14 -40 -5 -6
-14 -49 -20 -96 -5 -47 -21 -116 -35 -155 -13 -38 -36 -106 -51 -150 -15 -44
-31 -87 -36 -95 -12 -20 -14 -24 -34 -110 -10 -41 -21 -79 -25 -85 -4 -5 -15
-35 -25 -65 -10 -30 -21 -59 -25 -65 -4 -5 -15 -35 -25 -65 -10 -30 -21 -59
-25 -65 -3 -5 -12 -30 -19 -55 -7 -25 -21 -63 -31 -85 -10 -22 -22 -58 -25
-80 -4 -22 -13 -53 -20 -70 -7 -16 -21 -72 -30 -124 -9 -52 -19 -99 -23 -105
-8 -13 -32 -142 -32 -173 0 -12 -5 -25 -10 -28 -5 -3 -6 -13 -3 -21 6 -16 2
-26 -36 -102 -11 -24 -21 -51 -21 -60 0 -29 -24 -96 -67 -187 -15 -33 -28 -64
-29 -70 -1 -5 -3 -12 -4 -15 -1 -3 -3 -13 -5 -24 -12 -63 -29 -124 -39 -141
-19 -30 -26 -62 -32 -150 -3 -44 -12 -91 -19 -105 -8 -14 -16 -37 -19 -52 -3
-15 -12 -33 -20 -40 -17 -17 -28 -52 -32 -98 -1 -19 -9 -39 -16 -45 -21 -16
-77 -136 -82 -177 -3 -20 -22 -69 -42 -110 -19 -40 -41 -86 -48 -103 -23 -51
-65 -138 -86 -175 -10 -19 -33 -66 -51 -105 -17 -38 -38 -77 -45 -86 -8 -9
-23 -39 -33 -68 -10 -29 -23 -57 -30 -64 -6 -6 -11 -18 -11 -26 0 -9 -10 -32
-22 -51 -26 -43 -71 -133 -88 -180 -12 -31 -52 -106 -81 -150 -5 -8 -16 -31
-25 -50 -8 -19 -28 -57 -44 -85 -16 -27 -33 -57 -36 -65 -13 -27 -78 -125 -86
-128 -4 -2 -17 -22 -28 -45 -12 -23 -34 -64 -50 -92 -16 -27 -34 -61 -40 -75
-7 -14 -18 -36 -26 -50 -8 -14 -21 -42 -30 -62 -10 -21 -21 -38 -25 -38 -5 0
-18 -20 -29 -44 -11 -25 -24 -47 -29 -50 -11 -7 -56 -101 -71 -151 -7 -22 -18
-47 -24 -55 -14 -17 -86 -165 -86 -176 0 -4 -6 -15 -14 -23 -8 -9 -21 -38 -30
-65 -9 -27 -23 -58 -31 -69 -8 -12 -15 -27 -15 -35 0 -7 -9 -32 -20 -54 -11
-23 -20 -48 -20 -56 0 -9 -10 -29 -23 -46 -12 -17 -29 -49 -36 -71 -7 -22 -19
-47 -26 -55 -7 -8 -18 -37 -24 -65 -7 -27 -23 -73 -37 -102 -13 -30 -24 -56
-24 -60 0 -4 -6 -14 -14 -22 -7 -9 -22 -38 -32 -66 -10 -27 -33 -71 -51 -97
-18 -26 -33 -51 -33 -55 0 -11 -73 -117 -83 -122 -28 -12 -127 -225 -127 -274
0 -18 -59 -320 -131 -672 -100 -489 -157 -739 -241 -1060 -61 -231 -117 -442
-125 -470 -8 -27 -15 -55 -17 -62 -1 -7 -10 -20 -19 -31 -9 -10 -17 -22 -17
-26 0 -21 -163 -200 -207 -227 -18 -11 -33 -26 -33 -32 0 -15 -141 -157 -155
-157 -6 0 -24 -13 -40 -30 -16 -16 -34 -30 -40 -30 -6 0 -24 -13 -40 -30 -16
-16 -34 -30 -40 -30 -6 0 -24 -13 -40 -30 -16 -16 -33 -30 -37 -30 -5 0 -38
-23 -73 -50 -35 -28 -68 -50 -73 -50 -5 0 -17 -9 -27 -20 -10 -11 -24 -20 -30
-20 -7 0 -18 -7 -25 -15 -7 -9 -33 -25 -56 -35 -24 -11 -46 -24 -49 -30 -3 -6
-26 -19 -50 -30 -24 -11 -47 -24 -50 -30 -3 -5 -23 -17 -43 -27 -20 -9 -53
-29 -72 -44 -19 -16 -80 -51 -135 -80 -55 -28 -111 -59 -125 -68 -24 -16 -56
-32 -102 -50 -13 -5 -63 -28 -113 -51 -49 -23 -99 -46 -110 -50 -11 -4 -49
-21 -84 -39 -35 -17 -70 -31 -77 -31 -8 0 -14 -4 -14 -10 0 -5 -13 -10 -30
-10 -16 0 -46 -9 -66 -21 -20 -11 -42 -18 -49 -15 -7 2 -25 -2 -40 -10 -48
-25 -381 -16 -425 11 -4 2 -61 11 -127 19 -120 15 -140 21 -283 78 -157 64
-197 81 -250 108 -30 15 -90 42 -132 59 -42 18 -82 39 -89 47 -6 8 -26 14 -44
14 -23 0 -39 7 -52 24 -10 13 -48 47 -83 76 -36 29 -85 74 -110 99 -25 25 -61
57 -79 71 -74 55 -142 119 -198 185 -33 39 -90 100 -127 138 -36 37 -66 70
-66 73 0 7 -80 105 -150 184 -22 25 -57 73 -79 107 -21 35 -45 71 -54 81 -10
10 -17 22 -17 26 0 5 -36 49 -80 98 -44 50 -80 97 -80 104 0 7 -9 18 -20 24
-11 6 -20 15 -20 20 0 6 -14 29 -30 52 -16 22 -30 47 -30 55 0 7 -7 16 -15 19
-8 4 -15 10 -15 14 0 11 -28 70 -49 105 -17 27 -51 85 -117 200 -13 22 -30 56
-39 75 -9 19 -22 41 -29 50 -7 8 -19 31 -26 50 -7 19 -21 43 -31 52 -9 9 -20
32 -24 50 -4 18 -13 40 -20 48 -7 8 -18 33 -25 55 -7 22 -19 49 -26 60 -7 11
-18 40 -24 65 -7 25 -16 54 -20 65 -5 11 -16 65 -25 120 -10 55 -21 105 -25
110 -5 6 -16 48 -25 95 -9 47 -21 94 -26 105 -5 11 -15 52 -24 90 -9 39 -22
84 -30 101 -8 17 -20 55 -26 85 -6 30 -16 68 -24 84 -7 17 -18 48 -25 70 -7
22 -18 47 -25 55 -7 8 -19 33 -26 55 -7 22 -16 45 -20 50 -12 17 -39 161 -39
208 0 23 -4 47 -8 53 -9 9 -26 108 -38 219 -3 33 -10 65 -15 71 -26 32 -42
513 -27 814 4 91 10 299 12 463 3 166 9 304 14 310 6 7 13 118 17 247 7 244
18 385 34 404 5 6 11 133 14 281 6 280 21 460 39 482 5 7 13 52 18 100 7 86
12 106 31 148 12 25 41 171 41 208 1 15 7 27 13 27 19 0 50 59 68 126 8 32 26
85 41 118 14 32 26 67 26 77 0 10 23 76 51 146 66 167 73 182 103 222 14 19
26 42 26 50 0 9 9 27 20 41 11 14 20 32 20 41 0 19 51 123 62 127 4 2 8 12 8
21 0 10 9 30 20 44 11 14 20 28 20 31 0 3 14 35 30 71 17 36 30 71 31 78 0 6
13 35 29 62 46 80 130 235 130 240 0 3 9 14 20 25 11 11 20 27 20 36 0 9 9 27
20 41 11 14 20 31 20 38 0 7 14 29 30 50 17 21 30 44 30 51 0 8 4 14 9 14 5 0
18 17 28 38 41 79 78 139 115 185 21 27 38 53 38 59 0 5 12 28 28 51 43 66 52
81 59 97 3 8 21 34 40 57 18 23 33 46 33 51 0 5 7 12 15 16 8 3 20 17 25 31 5
14 13 25 18 25 4 0 25 25 47 56 22 31 48 66 57 79 10 12 33 52 53 89 19 36 42
74 50 83 36 40 85 109 85 119 0 7 7 14 15 18 8 3 15 11 15 17 0 14 69 111 87
122 7 4 13 13 13 19 0 6 16 27 35 47 20 20 69 78 110 130 42 52 84 101 95 108
11 8 20 19 20 25 0 5 22 31 48 57 27 25 56 58 65 74 10 15 37 41 60 58 23 17
41 35 40 40 -2 5 4 9 12 9 8 0 15 4 15 8 0 13 73 87 94 95 10 4 20 16 23 27 3
11 10 20 16 20 6 0 27 16 46 35 57 56 181 156 207 165 13 5 24 14 24 20 0 5 6
10 13 10 7 0 32 16 54 35 23 19 51 35 62 35 12 0 21 6 21 15 0 9 10 20 23 25
12 5 47 32 76 59 30 28 60 51 67 51 6 0 17 7 24 16 8 8 27 22 44 29 43 20 123
66 175 101 66 43 111 71 156 94 22 11 63 33 90 50 28 16 60 34 73 40 13 5 48
21 78 35 30 14 59 25 63 25 5 0 35 14 66 30 31 17 65 30 75 30 11 0 21 4 25 9
3 5 31 17 63 26 31 9 62 20 67 25 6 4 42 15 80 24 39 9 79 21 90 26 40 19 144
31 306 37 207 7 213 6 407 -83 l74 -34 -22 -30 c-12 -16 -27 -30 -35 -30 -7 0
-28 -20 -46 -45 -19 -25 -46 -59 -61 -77 -16 -17 -28 -38 -28 -45 0 -7 -4 -13
-10 -13 -5 0 -18 -19 -30 -42 -11 -24 -35 -72 -54 -108 -19 -36 -75 -148 -125
-250 -50 -102 -106 -212 -125 -245 -56 -102 -106 -201 -106 -212 0 -6 -7 -16
-15 -23 -8 -7 -20 -31 -26 -54 -6 -22 -16 -50 -23 -61 -7 -11 -18 -42 -25 -70
-7 -27 -19 -60 -27 -72 -8 -12 -21 -48 -29 -79 -8 -31 -18 -61 -23 -68 -5 -6
-17 -51 -27 -101 -10 -49 -21 -94 -25 -100 -3 -5 -12 -35 -19 -65 -7 -30 -19
-64 -25 -75 -7 -11 -21 -54 -30 -95 -10 -41 -22 -79 -26 -85 -10 -14 -28 -115
-36 -205 -4 -41 -10 -79 -14 -85 -5 -5 -11 -68 -14 -140 -3 -71 -6 -137 -7
-145 -4 -31 14 -245 21 -255 4 -5 11 -39 15 -75 10 -94 26 -193 35 -205 3 -5
15 -32 25 -60 10 -27 23 -57 30 -65 7 -8 19 -33 26 -55 7 -22 18 -47 24 -55 7
-8 18 -31 25 -50 8 -19 31 -56 53 -83 21 -26 50 -64 64 -83 41 -61 186 -225
264 -299 70 -67 80 -73 174 -102 89 -28 118 -32 260 -37 88 -3 186 -10 217
-16 37 -7 82 -8 132 -1 67 8 81 14 138 57 35 26 88 72 118 101 30 29 77 71
104 93 28 21 81 74 119 117 37 43 78 89 91 103 38 43 111 161 158 255 25 50
65 124 88 165 42 72 110 229 132 299 5 19 17 45 25 57 31 47 46 225 39 464 -6
234 -22 431 -36 465 -9 21 -24 98 -35 179 -4 27 -11 56 -16 65 -4 9 -17 46
-28 83 -11 36 -24 75 -30 85 -5 10 -16 38 -24 63 -8 25 -29 83 -47 130 -17 47
-38 105 -47 130 -8 25 -19 49 -24 54 -5 6 -9 20 -9 32 0 12 -7 27 -15 34 -8 7
-13 16 -10 20 3 5 -3 15 -13 22 -10 7 -24 29 -32 48 -7 19 -19 42 -25 50 -6 8
-18 31 -25 50 -7 19 -19 42 -25 50 -7 8 -18 31 -24 52 -15 47 -67 142 -86 158
-8 7 -15 18 -15 24 0 7 -10 21 -22 33 -13 11 -59 61 -103 113 -44 51 -114 127
-155 169 -106 107 -103 102 -84 139 8 18 60 75 115 129 54 53 99 102 99 109 0
8 9 18 20 24 11 6 20 17 20 24 0 8 23 34 50 59 28 25 50 48 50 52 0 4 25 35
55 70 30 34 55 67 55 72 0 6 11 18 25 27 14 9 25 24 25 33 0 14 147 181 222
251 15 15 28 31 28 37 0 11 153 162 185 182 11 7 40 22 65 34 25 12 62 33 82
46 21 12 44 23 52 23 7 0 19 7 26 14 6 8 37 20 68 27 31 7 62 15 67 19 28 20
132 35 245 35 116 0 130 -2 177 -26 30 -16 76 -30 114 -34 35 -3 78 -13 94
-20 17 -8 41 -19 55 -25 43 -19 70 -37 100 -65 37 -35 66 -30 63 10 -1 18 -12
37 -25 47 -13 10 -30 24 -37 30 -46 39 -117 88 -127 88 -6 0 -17 7 -24 15 -7
8 -20 15 -29 15 -10 0 -39 14 -67 31 -75 48 -130 59 -294 58 -80 -1 -156 -3
-170 -5z m3850 -1404 c22 -11 50 -20 64 -20 14 0 75 -25 137 -55 62 -30 120
-55 130 -55 10 0 21 -5 24 -10 4 -6 21 -16 38 -24 18 -7 58 -31 90 -52 32 -21
72 -47 89 -56 45 -25 189 -169 218 -218 14 -23 38 -58 55 -78 48 -57 43 -124
-37 -512 -38 -179 -70 -336 -73 -349 -6 -22 -7 -22 -33 14 -37 51 -138 155
-151 155 -6 0 -18 8 -28 19 -10 10 -35 24 -55 32 -21 7 -38 16 -38 20 0 12
-141 77 -195 90 -27 6 -54 15 -60 19 -5 4 -35 15 -65 24 -30 9 -62 21 -72 26
-9 5 -56 16 -105 25 -48 9 -97 20 -108 25 -11 4 -63 13 -115 20 -52 6 -120 15
-150 20 -123 21 -211 31 -318 37 -62 3 -115 10 -118 15 -7 11 -57 10 -70 -1
-5 -5 -45 -11 -89 -14 -197 -14 -256 -21 -261 -29 -3 -4 -20 -8 -37 -8 -18 0
-48 -4 -67 -9 -78 -20 -100 -21 -100 -6 0 9 4 23 9 33 5 9 16 64 25 121 9 57
20 109 25 115 12 14 28 160 37 331 6 107 11 136 28 162 12 18 28 33 36 33 9 0
20 4 25 8 6 5 39 17 75 27 36 10 70 22 75 26 6 4 51 15 100 24 50 9 99 20 110
25 26 12 231 40 289 40 25 0 48 4 51 10 4 6 56 9 126 9 66 -1 123 2 126 5 4 3
78 6 165 6 139 0 164 -2 198 -20z m-5207 -187 c53 -54 108 -113 121 -132 14
-18 34 -40 45 -48 12 -8 21 -19 21 -25 0 -6 17 -27 38 -47 36 -35 112 -143
112 -158 0 -7 70 -156 108 -228 90 -176 113 -221 127 -262 10 -27 26 -66 36
-89 11 -22 19 -47 19 -55 0 -8 7 -27 15 -43 8 -16 22 -56 31 -90 9 -33 19 -65
24 -71 4 -5 15 -35 24 -65 9 -30 21 -63 26 -72 5 -9 12 -34 15 -55 2 -21 7
-54 9 -73 9 -70 19 -115 27 -125 4 -6 8 -20 7 -30 0 -11 5 -60 11 -109 7 -48
11 -107 11 -130 -1 -22 2 -98 6 -167 7 -128 -15 -391 -37 -431 -5 -10 -9 -27
-9 -37 0 -20 -9 -45 -40 -116 -45 -104 -63 -142 -77 -170 -68 -127 -105 -189
-120 -198 -7 -4 -13 -13 -13 -18 0 -15 -72 -132 -87 -142 -7 -4 -13 -13 -13
-19 0 -9 -32 -52 -89 -119 -63 -74 -286 -289 -301 -289 -11 0 -60 -25 -60 -31
0 -3 -21 -6 -47 -8 -26 -1 -51 -7 -54 -13 -8 -12 -119 -2 -119 11 0 5 -42 17
-92 26 -144 28 -197 65 -349 240 -70 80 -132 214 -213 459 -9 27 -20 117 -27
210 -6 92 -17 180 -26 206 -8 25 -18 93 -20 151 -6 110 12 358 26 387 9 18 31
147 31 185 0 12 6 34 14 49 8 15 22 62 30 104 9 43 21 82 26 89 5 6 15 36 21
66 6 30 17 63 24 75 8 12 21 46 30 77 9 31 20 59 25 62 4 2 11 21 15 42 3 20
15 55 25 77 10 23 27 66 36 96 9 30 20 60 24 65 4 6 13 33 20 60 7 28 21 64
30 80 10 17 21 46 25 65 4 19 13 42 20 50 7 8 16 31 20 50 4 19 18 55 30 80
61 116 135 278 135 292 0 9 7 21 15 28 8 7 15 17 15 22 0 6 11 19 25 30 14 11
25 28 25 39 0 21 39 95 107 202 24 37 43 72 43 77 0 26 34 2 123 -87z m4452
-794 c116 -6 215 -14 220 -18 6 -5 76 -11 157 -15 115 -5 173 -13 260 -35 99
-25 217 -72 252 -99 6 -5 28 -12 48 -16 70 -13 219 -85 303 -147 108 -78 165
-150 199 -247 15 -41 14 -52 -19 -214 -19 -95 -35 -175 -35 -179 0 -12 -38
-21 -60 -14 -14 4 -20 15 -20 34 0 38 -27 70 -166 202 -150 140 -136 130 -225
174 -41 20 -94 47 -119 60 -25 12 -61 26 -80 30 -19 4 -42 13 -50 20 -17 14
-141 57 -215 75 -27 6 -81 20 -120 30 -38 10 -110 22 -160 25 -49 4 -126 13
-170 20 -93 16 -428 20 -483 6 -20 -5 -106 -12 -191 -16 l-153 -7 5 39 c6 47
24 121 36 148 5 11 12 27 14 36 8 24 61 48 136 60 36 5 86 15 111 21 40 9 220
32 290 36 14 1 120 -3 235 -9z m-231 -367 c5 -9 52 -13 318 -32 69 -5 135 -14
145 -19 10 -6 70 -18 133 -26 63 -9 119 -20 125 -24 5 -5 28 -12 50 -15 22 -4
68 -21 103 -37 34 -16 66 -29 71 -29 14 0 110 -51 148 -78 18 -13 37 -21 42
-17 6 3 13 -1 18 -8 4 -8 26 -24 49 -35 22 -11 46 -28 53 -36 8 -9 18 -16 23
-16 9 0 119 -111 151 -152 54 -71 76 -104 77 -114 0 -6 7 -17 15 -24 28 -23
47 -75 52 -141 5 -54 1 -81 -20 -145 -26 -81 -60 -230 -97 -434 -11 -63 -24
-122 -29 -130 -4 -8 -16 -42 -26 -75 -10 -33 -22 -64 -26 -70 -4 -5 -15 -55
-24 -110 -9 -55 -20 -104 -24 -110 -5 -5 -14 -53 -21 -105 -7 -52 -20 -113
-30 -136 -11 -22 -24 -62 -31 -90 -6 -27 -16 -54 -20 -59 -4 -6 -11 -42 -14
-80 -8 -92 -24 -195 -35 -220 -5 -11 -16 -56 -25 -100 -10 -44 -20 -84 -24
-90 -4 -5 -13 -37 -20 -70 -7 -33 -18 -69 -25 -80 -7 -11 -18 -39 -24 -62 -7
-23 -17 -45 -22 -48 -5 -3 -19 -25 -30 -48 -40 -80 -62 -122 -74 -137 -7 -8
-21 -42 -30 -75 -10 -33 -21 -69 -26 -80 -5 -11 -16 -45 -26 -75 -9 -30 -23
-64 -30 -75 -8 -11 -14 -25 -14 -32 0 -7 -11 -36 -24 -65 -14 -29 -28 -67 -31
-83 -4 -17 -24 -66 -45 -110 -21 -44 -45 -102 -55 -130 -9 -27 -23 -62 -31
-77 -8 -14 -14 -33 -14 -41 0 -8 -7 -20 -15 -27 -8 -7 -13 -16 -10 -20 6 -10
-21 -66 -51 -107 -13 -17 -24 -35 -24 -40 0 -5 -15 -32 -34 -61 -18 -29 -55
-96 -82 -150 -26 -53 -54 -101 -61 -105 -7 -4 -13 -14 -13 -21 0 -13 -78 -155
-101 -182 -21 -26 -35 -52 -69 -126 -6 -13 -24 -45 -40 -73 -16 -27 -75 -140
-130 -250 -177 -351 -235 -460 -247 -468 -7 -4 -13 -16 -13 -26 0 -10 -10 -33
-23 -52 -12 -19 -42 -72 -65 -118 -23 -46 -45 -89 -50 -95 -5 -6 -15 -27 -22
-46 -7 -19 -21 -44 -30 -55 -10 -11 -22 -34 -28 -52 -6 -17 -230 -399 -498
-847 -521 -873 -498 -841 -518 -749 -4 18 -21 49 -37 69 -16 20 -29 42 -29 49
0 7 -13 31 -30 53 -16 23 -30 45 -30 49 0 7 -15 24 -62 73 -16 15 -28 32 -28
37 0 8 -70 76 -154 150 -20 18 -36 37 -36 42 0 35 -114 154 -177 184 -13 5
-23 14 -23 18 0 8 -125 79 -140 79 -5 0 -39 13 -75 30 -36 16 -69 30 -74 30
-5 0 -11 7 -14 14 -3 8 -25 20 -49 26 -24 7 -53 18 -65 26 -43 28 -170 37
-345 25 -89 -7 -167 -16 -172 -21 -6 -6 -20 -10 -32 -10 -28 0 -119 -27 -161
-48 -46 -23 -51 -8 -16 42 17 24 34 53 37 64 4 11 13 23 21 26 8 3 15 13 15
23 0 10 15 49 34 88 47 97 62 133 76 180 11 39 32 86 90 210 45 94 70 154 70
168 0 7 6 21 13 32 7 11 22 43 32 70 10 28 24 57 31 66 8 8 14 22 14 31 0 8 8
26 18 39 10 13 26 45 36 71 9 25 23 52 31 58 8 7 17 27 21 46 3 19 10 37 15
40 5 2 13 22 19 44 6 21 22 52 35 68 14 17 25 34 25 40 0 5 9 20 19 33 26 33
57 87 76 129 8 19 19 42 25 50 6 8 13 23 16 33 4 9 11 17 16 17 5 0 6 5 3 10
-3 6 -2 10 2 10 5 0 17 19 27 43 10 23 29 56 42 74 13 17 24 35 24 39 0 4 8
16 17 26 23 26 57 82 86 144 14 28 30 55 36 58 6 4 11 16 11 27 0 10 5 19 10
19 6 0 10 9 10 19 0 11 4 22 9 25 4 3 34 59 65 123 32 65 66 134 76 153 34 67
141 286 204 420 15 30 39 78 54 105 15 28 35 68 44 90 29 69 47 110 57 125 15
22 81 169 81 179 0 5 7 14 15 21 8 7 15 20 15 29 0 9 20 56 45 106 25 49 45
95 45 102 0 7 9 28 20 48 11 20 20 49 20 65 0 16 5 32 10 35 6 3 10 21 10 40
0 19 5 37 10 40 6 3 10 21 10 40 0 19 5 37 10 40 6 3 10 21 10 40 0 19 5 37
10 40 6 3 10 21 10 40 0 19 5 37 10 40 6 3 10 21 10 40 0 19 5 37 10 40 6 3
10 26 10 50 0 24 5 47 10 50 6 3 10 17 10 29 0 13 7 29 15 36 8 7 17 28 21 49
4 20 15 54 25 75 11 22 19 50 19 62 0 13 5 26 11 30 6 4 9 20 6 38 -3 18 -1
54 4 82 5 27 12 72 14 100 3 28 17 89 31 135 38 121 54 181 54 200 0 9 6 22
14 28 8 7 17 28 21 49 4 20 15 54 25 75 10 21 22 52 25 70 4 18 15 47 26 65
10 18 26 60 35 95 9 34 19 67 24 72 5 6 16 39 25 75 9 36 21 70 25 75 5 6 16
44 26 85 9 41 20 80 24 85 5 6 13 39 20 75 6 36 19 81 29 100 10 19 23 64 30
100 7 36 17 70 21 75 5 6 16 59 24 118 9 60 21 116 25 125 5 9 17 49 27 87 9
39 20 75 24 80 4 6 13 40 20 77 11 60 15 68 44 81 49 23 184 37 357 37 94 0
160 4 164 10 8 12 62 13 69 2z m-2598 -6903 c32 -11 73 -24 89 -28 44 -13 124
-50 170 -80 47 -30 46 -30 105 -76 25 -19 63 -47 85 -63 125 -86 205 -157 205
-183 0 -13 70 -103 84 -108 17 -6 166 -165 166 -177 0 -7 6 -14 14 -17 21 -8
74 -92 87 -139 7 -24 19 -52 26 -63 10 -16 10 -25 0 -43 -7 -15 -300 -201
-777 -496 -719 -443 -765 -470 -768 -446 -1 14 -7 52 -13 85 -16 90 -80 174
-198 255 -27 19 -50 38 -51 43 0 4 -28 21 -62 37 -57 28 -70 30 -171 30 l-109
0 6 26 c19 75 52 252 106 570 34 195 65 366 70 380 6 14 10 40 10 58 0 44 38
265 50 293 9 22 102 73 133 73 9 0 40 10 69 21 124 50 227 64 499 67 94 2 127
-2 175 -19z m-857 -1712 c19 -17 50 -41 69 -53 39 -24 39 -30 -3 -63 -31 -26
-65 -57 -171 -155 -57 -53 -61 -55 -61 -32 0 14 6 31 13 37 8 6 14 19 14 28 0
9 11 37 24 64 14 26 32 80 41 119 23 104 23 104 74 55z"/>
</g>
</svg>
